<svg xmlns="http://www.w3.org/2000/svg" width="1925.087" height="2259.508" viewBox="0 0 1925.087 2259.508">
  <g id="bakgrund" transform="translate(0 1.06)" opacity="0.3">
    <g id="Group_85" data-name="Group 85" transform="translate(21.037 -1510.5)" opacity="0.67" style="mix-blend-mode: color-dodge;isolation: isolate">
      <line id="Line_20" data-name="Line 20" x1="605.5" y2="606" transform="translate(0.5 1510.5)" fill="none" stroke="#710a0a" stroke-width="3"/>
      <line id="Line_20-2" data-name="Line 20" x1="605.5" y2="606" transform="translate(286.452 1510.5)" fill="none" stroke="#710a0a" stroke-width="3"/>
      <line id="Line_20-3" data-name="Line 20" x1="605.5" y2="606" transform="translate(513.32 1510.5)" fill="none" stroke="#710a0a" stroke-width="3"/>
      <line id="Line_20-4" data-name="Line 20" x1="605.5" y2="606" transform="translate(769.73 1510.5)" fill="none" stroke="#710a0a" stroke-width="3"/>
      <line id="Line_20-5" data-name="Line 20" x1="605.5" y2="606" transform="translate(996.598 1510.5)" fill="none" stroke="#710a0a" stroke-width="3"/>
      <line id="Line_20-6" data-name="Line 20" x1="605.5" y2="606" transform="translate(1282.55 1510.5)" fill="none" stroke="#710a0a" stroke-width="3"/>
      <line id="Line_20-7" data-name="Line 20" x1="605.5" y2="606" transform="translate(0.5 2060.962)" fill="none" stroke="#710a0a" stroke-width="3"/>
      <line id="Line_20-8" data-name="Line 20" x1="605.5" y2="606" transform="translate(286.452 2060.962)" fill="none" stroke="#710a0a" stroke-width="3"/>
      <line id="Line_20-9" data-name="Line 20" x1="605.5" y2="606" transform="translate(513.32 2060.962)" fill="none" stroke="#710a0a" stroke-width="3"/>
      <line id="Line_20-10" data-name="Line 20" x1="605.5" y2="606" transform="translate(769.73 2060.962)" fill="none" stroke="#710a0a" stroke-width="3"/>
      <line id="Line_20-11" data-name="Line 20" x1="605.5" y2="606" transform="translate(996.598 2060.962)" fill="none" stroke="#710a0a" stroke-width="3"/>
      <line id="Line_20-12" data-name="Line 20" x1="605.5" y2="606" transform="translate(1282.55 2060.962)" fill="none" stroke="#710a0a" stroke-width="3"/>
      <line id="Line_20-13" data-name="Line 20" x1="605.5" y2="606" transform="translate(0.5 2611.425)" fill="none" stroke="#710a0a" stroke-width="3"/>
      <line id="Line_20-14" data-name="Line 20" x1="605.5" y2="606" transform="translate(286.452 2611.425)" fill="none" stroke="#710a0a" stroke-width="3"/>
      <line id="Line_20-15" data-name="Line 20" x1="605.5" y2="606" transform="translate(513.32 2611.425)" fill="none" stroke="#710a0a" stroke-width="3"/>
      <line id="Line_20-16" data-name="Line 20" x1="605.5" y2="606" transform="translate(769.73 2611.425)" fill="none" stroke="#710a0a" stroke-width="3"/>
      <line id="Line_20-17" data-name="Line 20" x1="605.5" y2="606" transform="translate(996.598 2611.425)" fill="none" stroke="#710a0a" stroke-width="3"/>
      <line id="Line_20-18" data-name="Line 20" x1="605.5" y2="606" transform="translate(1282.55 2611.425)" fill="none" stroke="#710a0a" stroke-width="3"/>
      <line id="Line_20-19" data-name="Line 20" x1="605.5" y2="606" transform="translate(0.5 3161.888)" fill="none" stroke="#710a0a" stroke-width="3"/>
      <line id="Line_20-20" data-name="Line 20" x1="605.5" y2="606" transform="translate(286.452 3161.888)" fill="none" stroke="#710a0a" stroke-width="3"/>
      <line id="Line_20-21" data-name="Line 20" x1="605.5" y2="606" transform="translate(513.32 3161.888)" fill="none" stroke="#710a0a" stroke-width="3"/>
      <line id="Line_20-22" data-name="Line 20" x1="605.5" y2="606" transform="translate(769.73 3161.888)" fill="none" stroke="#710a0a" stroke-width="3"/>
      <line id="Line_20-23" data-name="Line 20" x1="605.5" y2="606" transform="translate(996.598 3161.888)" fill="none" stroke="#710a0a" stroke-width="3"/>
      <line id="Line_20-24" data-name="Line 20" x1="605.5" y2="606" transform="translate(1282.55 3161.888)" fill="none" stroke="#710a0a" stroke-width="3"/>
    </g>
    <g id="Group_86" data-name="Group 86" transform="translate(-14.914 -3090.887)">
      <g id="water-bubble" transform="translate(-40.433 3144.188) rotate(-2)">
        <path id="Path_15" data-name="Path 15" d="M580.818,92.911a22.512,22.512,0,1,0-19.1-25.459A22.584,22.584,0,0,0,580.818,92.911ZM566.74,68.163a17.458,17.458,0,0,1,17.244-14.981,18.03,18.03,0,0,1,2.467.178,17.431,17.431,0,1,1-19.711,14.8Z" transform="translate(-408.996)" fill="#353b3e"/>
        <path id="Path_16" data-name="Path 16" d="M245.558,121.232c.127.013.242.025.356.025a2.544,2.544,0,0,0,2.518-2.187,6.065,6.065,0,0,1,2.8-4.3,2.548,2.548,0,1,0-2.7-4.324,11.169,11.169,0,0,0-5.15,7.9A2.581,2.581,0,0,0,245.558,121.232Zm-37.935,25.625c.127,0,.254-.013.381-.025a22.345,22.345,0,0,1,3.332-.254,2.543,2.543,0,0,0,0-5.087,27.654,27.654,0,0,0-4.108.305,2.545,2.545,0,0,0,.394,5.061ZM186.856,171.07a2.551,2.551,0,0,0,2.543-2.543,21.936,21.936,0,0,1,7.834-16.812,2.545,2.545,0,0,0-3.281-3.891,27,27,0,0,0-9.652,20.7A2.57,2.57,0,0,0,186.856,171.07Zm21.25-57.163a9.207,9.207,0,1,0,9.207-9.207A9.221,9.221,0,0,0,208.106,113.907Zm13.34,0a4.12,4.12,0,1,1-4.12-4.12A4.128,4.128,0,0,1,221.446,113.907ZM267.2,144.466a12.272,12.272,0,1,0,12.272,12.272A12.287,12.287,0,0,0,267.2,144.466Zm0,19.457a7.185,7.185,0,1,1,7.185-7.185A7.194,7.194,0,0,1,267.2,163.923Z" transform="translate(-79.777 -49.394)" fill="#353b3e"/>
        <path id="Path_17" data-name="Path 17" d="M169.723,347.518a38.846,38.846,0,0,0,.521-6.346A38.638,38.638,0,1,0,150.9,374.682c.127.191.267.382.407.56a17.6,17.6,0,0,0,11.623,6.88,18.773,18.773,0,0,0,2.518.178,17.66,17.66,0,0,0,4.273-34.781ZM177.85,366.4a12.56,12.56,0,1,1-12.463-14.332,12.143,12.143,0,0,1,1.793.127,12.563,12.563,0,0,1,10.67,14.2ZM155.315,317.43a33.306,33.306,0,0,1,9.83,23.743,33.969,33.969,0,0,1-.5,5.824A17.665,17.665,0,0,0,148.626,370.1a33.577,33.577,0,1,1,6.689-52.674Z" transform="translate(0 -222.039)" fill="#353b3e"/>
        <path id="Path_18" data-name="Path 18" d="M592.676,736.764c.127.013.242.025.356.025a2.544,2.544,0,0,0,2.518-2.187,3.957,3.957,0,0,1,1.831-2.81,2.548,2.548,0,0,0-2.7-4.324,9.007,9.007,0,0,0-4.171,6.409A2.544,2.544,0,0,0,592.676,736.764Z" transform="translate(-434.309 -592.63)" fill="#353b3e"/>
      </g>
      <g id="water-bubble-2" data-name="water-bubble" transform="matrix(0.588, -0.809, 0.809, 0.588, -78.613, 3216.515)">
        <path id="Path_15-2" data-name="Path 15" d="M573.387,75.689a13.859,13.859,0,1,0-11.759-15.673A13.9,13.9,0,0,0,573.387,75.689ZM564.72,60.455a10.747,10.747,0,0,1,10.616-9.222,11.1,11.1,0,0,1,1.519.11,10.73,10.73,0,1,1-12.134,9.113Z" transform="translate(-431.902)" fill="#353b3e"/>
        <path id="Path_16-2" data-name="Path 16" d="M222.011,114.877c.078.008.149.016.219.016a1.566,1.566,0,0,0,1.55-1.347A3.734,3.734,0,0,1,225.5,110.9a1.568,1.568,0,1,0-1.66-2.662,6.876,6.876,0,0,0-3.171,4.862A1.589,1.589,0,0,0,222.011,114.877Zm-23.353,15.775c.078,0,.157-.008.235-.016a13.755,13.755,0,0,1,2.051-.157,1.566,1.566,0,0,0,0-3.131,17.024,17.024,0,0,0-2.529.188,1.567,1.567,0,0,0,.243,3.116Zm-12.784,14.906a1.57,1.57,0,0,0,1.566-1.566,13.5,13.5,0,0,1,4.822-10.349,1.567,1.567,0,0,0-2.02-2.4,16.621,16.621,0,0,0-5.942,12.745A1.582,1.582,0,0,0,185.874,145.558Zm13.082-35.19a5.668,5.668,0,1,0,5.668-5.668A5.677,5.677,0,0,0,198.955,110.368Zm8.212,0a2.536,2.536,0,1,1-2.536-2.536A2.541,2.541,0,0,1,207.168,110.368Zm28.168,18.812a7.555,7.555,0,1,0,7.555,7.555A7.564,7.564,0,0,0,235.335,129.18Zm0,11.978a4.423,4.423,0,1,1,4.423-4.423A4.429,4.429,0,0,1,235.335,141.158Z" transform="translate(-84.245 -52.16)" fill="#353b3e"/>
        <path id="Path_17-2" data-name="Path 17" d="M140.193,330.213a23.913,23.913,0,0,0,.321-3.906,23.786,23.786,0,1,0-11.907,20.629c.078.117.164.235.251.344a10.837,10.837,0,0,0,7.155,4.235,11.559,11.559,0,0,0,1.55.11,10.872,10.872,0,0,0,2.63-21.411Zm5,11.626a7.732,7.732,0,1,1-7.672-8.823,7.477,7.477,0,0,1,1.1.078,7.734,7.734,0,0,1,6.568,8.745Zm-13.872-30.148a20.5,20.5,0,0,1,6.052,14.616,20.913,20.913,0,0,1-.305,3.586,10.874,10.874,0,0,0-9.864,14.225,20.67,20.67,0,1,1,4.118-32.426Z" transform="translate(0 -234.475)" fill="#353b3e"/>
        <path id="Path_18-2" data-name="Path 18" d="M591.835,733.044c.078.008.149.016.219.016a1.566,1.566,0,0,0,1.55-1.346,2.436,2.436,0,0,1,1.127-1.73,1.568,1.568,0,0,0-1.66-2.662,5.545,5.545,0,0,0-2.568,3.946A1.566,1.566,0,0,0,591.835,733.044Z" transform="translate(-458.633 -625.82)" fill="#353b3e"/>
      </g>
    </g>
    <g id="Group_81" data-name="Group 81" transform="translate(-14.913 -1794.887)">
      <g id="water-bubble-3" data-name="water-bubble" transform="translate(-40.433 3144.188) rotate(-2)">
        <path id="Path_15-3" data-name="Path 15" d="M580.818,92.911a22.512,22.512,0,1,0-19.1-25.459A22.584,22.584,0,0,0,580.818,92.911ZM566.74,68.163a17.458,17.458,0,0,1,17.244-14.981,18.03,18.03,0,0,1,2.467.178,17.431,17.431,0,1,1-19.711,14.8Z" transform="translate(-408.996)" fill="#353b3e"/>
        <path id="Path_16-3" data-name="Path 16" d="M245.558,121.232c.127.013.242.025.356.025a2.544,2.544,0,0,0,2.518-2.187,6.065,6.065,0,0,1,2.8-4.3,2.548,2.548,0,1,0-2.7-4.324,11.169,11.169,0,0,0-5.15,7.9A2.581,2.581,0,0,0,245.558,121.232Zm-37.935,25.625c.127,0,.254-.013.381-.025a22.345,22.345,0,0,1,3.332-.254,2.543,2.543,0,0,0,0-5.087,27.654,27.654,0,0,0-4.108.305,2.545,2.545,0,0,0,.394,5.061ZM186.856,171.07a2.551,2.551,0,0,0,2.543-2.543,21.936,21.936,0,0,1,7.834-16.812,2.545,2.545,0,0,0-3.281-3.891,27,27,0,0,0-9.652,20.7A2.57,2.57,0,0,0,186.856,171.07Zm21.25-57.163a9.207,9.207,0,1,0,9.207-9.207A9.221,9.221,0,0,0,208.106,113.907Zm13.34,0a4.12,4.12,0,1,1-4.12-4.12A4.128,4.128,0,0,1,221.446,113.907ZM267.2,144.466a12.272,12.272,0,1,0,12.272,12.272A12.287,12.287,0,0,0,267.2,144.466Zm0,19.457a7.185,7.185,0,1,1,7.185-7.185A7.194,7.194,0,0,1,267.2,163.923Z" transform="translate(-79.777 -49.394)" fill="#353b3e"/>
        <path id="Path_17-3" data-name="Path 17" d="M169.723,347.518a38.846,38.846,0,0,0,.521-6.346A38.638,38.638,0,1,0,150.9,374.682c.127.191.267.382.407.56a17.6,17.6,0,0,0,11.623,6.88,18.773,18.773,0,0,0,2.518.178,17.66,17.66,0,0,0,4.273-34.781ZM177.85,366.4a12.56,12.56,0,1,1-12.463-14.332,12.143,12.143,0,0,1,1.793.127,12.563,12.563,0,0,1,10.67,14.2ZM155.315,317.43a33.306,33.306,0,0,1,9.83,23.743,33.969,33.969,0,0,1-.5,5.824A17.665,17.665,0,0,0,148.626,370.1a33.577,33.577,0,1,1,6.689-52.674Z" transform="translate(0 -222.039)" fill="#353b3e"/>
        <path id="Path_18-3" data-name="Path 18" d="M592.676,736.764c.127.013.242.025.356.025a2.544,2.544,0,0,0,2.518-2.187,3.957,3.957,0,0,1,1.831-2.81,2.548,2.548,0,0,0-2.7-4.324,9.007,9.007,0,0,0-4.171,6.409A2.544,2.544,0,0,0,592.676,736.764Z" transform="translate(-434.309 -592.63)" fill="#353b3e"/>
      </g>
      <g id="water-bubble-4" data-name="water-bubble" transform="matrix(0.588, -0.809, 0.809, 0.588, -78.613, 3216.515)">
        <path id="Path_15-4" data-name="Path 15" d="M573.387,75.689a13.859,13.859,0,1,0-11.759-15.673A13.9,13.9,0,0,0,573.387,75.689ZM564.72,60.455a10.747,10.747,0,0,1,10.616-9.222,11.1,11.1,0,0,1,1.519.11,10.73,10.73,0,1,1-12.134,9.113Z" transform="translate(-431.902)" fill="#353b3e"/>
        <path id="Path_16-4" data-name="Path 16" d="M222.011,114.877c.078.008.149.016.219.016a1.566,1.566,0,0,0,1.55-1.347A3.734,3.734,0,0,1,225.5,110.9a1.568,1.568,0,1,0-1.66-2.662,6.876,6.876,0,0,0-3.171,4.862A1.589,1.589,0,0,0,222.011,114.877Zm-23.353,15.775c.078,0,.157-.008.235-.016a13.755,13.755,0,0,1,2.051-.157,1.566,1.566,0,0,0,0-3.131,17.024,17.024,0,0,0-2.529.188,1.567,1.567,0,0,0,.243,3.116Zm-12.784,14.906a1.57,1.57,0,0,0,1.566-1.566,13.5,13.5,0,0,1,4.822-10.349,1.567,1.567,0,0,0-2.02-2.4,16.621,16.621,0,0,0-5.942,12.745A1.582,1.582,0,0,0,185.874,145.558Zm13.082-35.19a5.668,5.668,0,1,0,5.668-5.668A5.677,5.677,0,0,0,198.955,110.368Zm8.212,0a2.536,2.536,0,1,1-2.536-2.536A2.541,2.541,0,0,1,207.168,110.368Zm28.168,18.812a7.555,7.555,0,1,0,7.555,7.555A7.564,7.564,0,0,0,235.335,129.18Zm0,11.978a4.423,4.423,0,1,1,4.423-4.423A4.429,4.429,0,0,1,235.335,141.158Z" transform="translate(-84.245 -52.16)" fill="#353b3e"/>
        <path id="Path_17-4" data-name="Path 17" d="M140.193,330.213a23.913,23.913,0,0,0,.321-3.906,23.786,23.786,0,1,0-11.907,20.629c.078.117.164.235.251.344a10.837,10.837,0,0,0,7.155,4.235,11.559,11.559,0,0,0,1.55.11,10.872,10.872,0,0,0,2.63-21.411Zm5,11.626a7.732,7.732,0,1,1-7.672-8.823,7.477,7.477,0,0,1,1.1.078,7.734,7.734,0,0,1,6.568,8.745Zm-13.872-30.148a20.5,20.5,0,0,1,6.052,14.616,20.913,20.913,0,0,1-.305,3.586,10.874,10.874,0,0,0-9.864,14.225,20.67,20.67,0,1,1,4.118-32.426Z" transform="translate(0 -234.475)" fill="#353b3e"/>
        <path id="Path_18-4" data-name="Path 18" d="M591.835,733.044c.078.008.149.016.219.016a1.566,1.566,0,0,0,1.55-1.346,2.436,2.436,0,0,1,1.127-1.73,1.568,1.568,0,0,0-1.66-2.662,5.545,5.545,0,0,0-2.568,3.946A1.566,1.566,0,0,0,591.835,733.044Z" transform="translate(-458.633 -625.82)" fill="#353b3e"/>
      </g>
    </g>
    <g id="Group_82" data-name="Group 82" transform="translate(2939.788 -1781.277) rotate(22)">
      <g id="water-bubble-5" data-name="water-bubble" transform="translate(-40.433 3144.188) rotate(-2)">
        <path id="Path_15-5" data-name="Path 15" d="M580.818,92.911a22.512,22.512,0,1,0-19.1-25.459A22.584,22.584,0,0,0,580.818,92.911ZM566.74,68.163a17.458,17.458,0,0,1,17.244-14.981,18.03,18.03,0,0,1,2.467.178,17.431,17.431,0,1,1-19.711,14.8Z" transform="translate(-408.996)" fill="#353b3e"/>
        <path id="Path_16-5" data-name="Path 16" d="M245.558,121.232c.127.013.242.025.356.025a2.544,2.544,0,0,0,2.518-2.187,6.065,6.065,0,0,1,2.8-4.3,2.548,2.548,0,1,0-2.7-4.324,11.169,11.169,0,0,0-5.15,7.9A2.581,2.581,0,0,0,245.558,121.232Zm-37.935,25.625c.127,0,.254-.013.381-.025a22.345,22.345,0,0,1,3.332-.254,2.543,2.543,0,0,0,0-5.087,27.654,27.654,0,0,0-4.108.305,2.545,2.545,0,0,0,.394,5.061ZM186.856,171.07a2.551,2.551,0,0,0,2.543-2.543,21.936,21.936,0,0,1,7.834-16.812,2.545,2.545,0,0,0-3.281-3.891,27,27,0,0,0-9.652,20.7A2.57,2.57,0,0,0,186.856,171.07Zm21.25-57.163a9.207,9.207,0,1,0,9.207-9.207A9.221,9.221,0,0,0,208.106,113.907Zm13.34,0a4.12,4.12,0,1,1-4.12-4.12A4.128,4.128,0,0,1,221.446,113.907ZM267.2,144.466a12.272,12.272,0,1,0,12.272,12.272A12.287,12.287,0,0,0,267.2,144.466Zm0,19.457a7.185,7.185,0,1,1,7.185-7.185A7.194,7.194,0,0,1,267.2,163.923Z" transform="translate(-79.777 -49.394)" fill="#353b3e"/>
        <path id="Path_17-5" data-name="Path 17" d="M169.723,347.518a38.846,38.846,0,0,0,.521-6.346A38.638,38.638,0,1,0,150.9,374.682c.127.191.267.382.407.56a17.6,17.6,0,0,0,11.623,6.88,18.773,18.773,0,0,0,2.518.178,17.66,17.66,0,0,0,4.273-34.781ZM177.85,366.4a12.56,12.56,0,1,1-12.463-14.332,12.143,12.143,0,0,1,1.793.127,12.563,12.563,0,0,1,10.67,14.2ZM155.315,317.43a33.306,33.306,0,0,1,9.83,23.743,33.969,33.969,0,0,1-.5,5.824A17.665,17.665,0,0,0,148.626,370.1a33.577,33.577,0,1,1,6.689-52.674Z" transform="translate(0 -222.039)" fill="#353b3e"/>
        <path id="Path_18-5" data-name="Path 18" d="M592.676,736.764c.127.013.242.025.356.025a2.544,2.544,0,0,0,2.518-2.187,3.957,3.957,0,0,1,1.831-2.81,2.548,2.548,0,0,0-2.7-4.324,9.007,9.007,0,0,0-4.171,6.409A2.544,2.544,0,0,0,592.676,736.764Z" transform="translate(-434.309 -592.63)" fill="#353b3e"/>
      </g>
      <g id="water-bubble-6" data-name="water-bubble" transform="matrix(0.588, -0.809, 0.809, 0.588, -78.613, 3216.515)">
        <path id="Path_15-6" data-name="Path 15" d="M573.387,75.689a13.859,13.859,0,1,0-11.759-15.673A13.9,13.9,0,0,0,573.387,75.689ZM564.72,60.455a10.747,10.747,0,0,1,10.616-9.222,11.1,11.1,0,0,1,1.519.11,10.73,10.73,0,1,1-12.134,9.113Z" transform="translate(-431.902)" fill="#353b3e"/>
        <path id="Path_16-6" data-name="Path 16" d="M222.011,114.877c.078.008.149.016.219.016a1.566,1.566,0,0,0,1.55-1.347A3.734,3.734,0,0,1,225.5,110.9a1.568,1.568,0,1,0-1.66-2.662,6.876,6.876,0,0,0-3.171,4.862A1.589,1.589,0,0,0,222.011,114.877Zm-23.353,15.775c.078,0,.157-.008.235-.016a13.755,13.755,0,0,1,2.051-.157,1.566,1.566,0,0,0,0-3.131,17.024,17.024,0,0,0-2.529.188,1.567,1.567,0,0,0,.243,3.116Zm-12.784,14.906a1.57,1.57,0,0,0,1.566-1.566,13.5,13.5,0,0,1,4.822-10.349,1.567,1.567,0,0,0-2.02-2.4,16.621,16.621,0,0,0-5.942,12.745A1.582,1.582,0,0,0,185.874,145.558Zm13.082-35.19a5.668,5.668,0,1,0,5.668-5.668A5.677,5.677,0,0,0,198.955,110.368Zm8.212,0a2.536,2.536,0,1,1-2.536-2.536A2.541,2.541,0,0,1,207.168,110.368Zm28.168,18.812a7.555,7.555,0,1,0,7.555,7.555A7.564,7.564,0,0,0,235.335,129.18Zm0,11.978a4.423,4.423,0,1,1,4.423-4.423A4.429,4.429,0,0,1,235.335,141.158Z" transform="translate(-84.245 -52.16)" fill="#353b3e"/>
        <path id="Path_17-6" data-name="Path 17" d="M140.193,330.213a23.913,23.913,0,0,0,.321-3.906,23.786,23.786,0,1,0-11.907,20.629c.078.117.164.235.251.344a10.837,10.837,0,0,0,7.155,4.235,11.559,11.559,0,0,0,1.55.11,10.872,10.872,0,0,0,2.63-21.411Zm5,11.626a7.732,7.732,0,1,1-7.672-8.823,7.477,7.477,0,0,1,1.1.078,7.734,7.734,0,0,1,6.568,8.745Zm-13.872-30.148a20.5,20.5,0,0,1,6.052,14.616,20.913,20.913,0,0,1-.305,3.586,10.874,10.874,0,0,0-9.864,14.225,20.67,20.67,0,1,1,4.118-32.426Z" transform="translate(0 -234.475)" fill="#353b3e"/>
        <path id="Path_18-6" data-name="Path 18" d="M591.835,733.044c.078.008.149.016.219.016a1.566,1.566,0,0,0,1.55-1.346,2.436,2.436,0,0,1,1.127-1.73,1.568,1.568,0,0,0-1.66-2.662,5.545,5.545,0,0,0-2.568,3.946A1.566,1.566,0,0,0,591.835,733.044Z" transform="translate(-458.633 -625.82)" fill="#353b3e"/>
      </g>
    </g>
    <g id="Group_83" data-name="Group 83" transform="translate(928.376 4574.698) rotate(-162)">
      <g id="water-bubble-7" data-name="water-bubble" transform="translate(36.786 3156.969) rotate(-2)">
        <path id="Path_15-7" data-name="Path 15" d="M10.793,25.013A12.569,12.569,0,1,0,.129,10.8,12.609,12.609,0,0,0,10.793,25.013ZM2.933,11.2a9.747,9.747,0,0,1,9.628-8.364,10.067,10.067,0,0,1,1.377.1A9.732,9.732,0,1,1,2.933,11.2Z" transform="translate(33.271 0)" fill="#353b3e"/>
        <path id="Path_16-7" data-name="Path 16" d="M34.2,9.23c.071.007.135.014.2.014a1.421,1.421,0,0,0,1.406-1.221,3.386,3.386,0,0,1,1.562-2.4,1.422,1.422,0,1,0-1.505-2.414,6.236,6.236,0,0,0-2.876,4.409A1.441,1.441,0,0,0,34.2,9.23ZM13.022,23.537c.071,0,.142-.007.213-.014a12.476,12.476,0,0,1,1.86-.142,1.42,1.42,0,0,0,0-2.84,15.44,15.44,0,0,0-2.293.17,1.421,1.421,0,0,0,.22,2.826ZM1.427,37.056a1.424,1.424,0,0,0,1.42-1.42A12.247,12.247,0,0,1,7.221,26.25a1.421,1.421,0,0,0-1.832-2.173A15.075,15.075,0,0,0,0,35.636,1.435,1.435,0,0,0,1.427,37.056ZM13.292,5.141A5.141,5.141,0,1,0,18.432,0,5.148,5.148,0,0,0,13.292,5.141Zm7.448,0a2.3,2.3,0,1,1-2.3-2.3A2.3,2.3,0,0,1,20.74,5.141ZM46.286,22.2a6.852,6.852,0,1,0,6.852,6.852A6.86,6.86,0,0,0,46.286,22.2Zm0,10.863A4.012,4.012,0,1,1,50.3,29.054,4.017,4.017,0,0,1,46.286,33.066Z" transform="translate(6.49 4.018)" fill="#353b3e"/>
        <path id="Path_17-7" data-name="Path 17" d="M42.892,25.135a21.69,21.69,0,0,0,.291-3.543A21.6,21.6,0,0,0,21.592,0,21.6,21.6,0,0,0,0,21.592,21.6,21.6,0,0,0,21.592,43.184,21.445,21.445,0,0,0,32.384,40.3c.071.106.149.213.227.312a9.828,9.828,0,0,0,6.49,3.841,10.48,10.48,0,0,0,1.406.1,9.86,9.86,0,0,0,2.386-19.419Zm4.537,10.544a7.013,7.013,0,1,1-6.958-8,6.778,6.778,0,0,1,1,.071,7.014,7.014,0,0,1,5.957,7.931ZM34.848,8.336a18.6,18.6,0,0,1,5.488,13.256,18.966,18.966,0,0,1-.277,3.252,9.863,9.863,0,0,0-8.946,12.9A18.751,18.751,0,0,1,8.329,8.336a18.761,18.761,0,0,1,26.519,0Z" transform="translate(0 18.062)" fill="#353b3e"/>
        <path id="Path_18-7" data-name="Path 18" d="M1.222,5.4c.071.007.135.014.2.014A1.421,1.421,0,0,0,2.827,4.2,2.209,2.209,0,0,1,3.849,2.628,1.422,1.422,0,0,0,2.344.214,5.029,5.029,0,0,0,.015,3.793,1.42,1.42,0,0,0,1.222,5.4Z" transform="translate(35.33 48.209)" fill="#353b3e"/>
      </g>
      <g id="water-bubble-8" data-name="water-bubble" transform="matrix(0.588, -0.809, 0.809, 0.588, 14.914, 3146.143)">
        <path id="Path_15-8" data-name="Path 15" d="M6.645,15.4A7.738,7.738,0,1,0,.079,6.648,7.763,7.763,0,0,0,6.645,15.4ZM1.806,6.893A6,6,0,0,1,7.733,1.744a6.2,6.2,0,0,1,.848.061A5.991,5.991,0,1,1,1.806,6.893Z" transform="translate(20.482 0)" fill="#353b3e"/>
        <path id="Path_16-8" data-name="Path 16" d="M21.055,5.682c.044,0,.083.009.122.009a.874.874,0,0,0,.865-.752A2.085,2.085,0,0,1,23,3.462a.876.876,0,1,0-.927-1.486,3.839,3.839,0,0,0-1.77,2.714A.887.887,0,0,0,21.055,5.682ZM8.016,14.49c.044,0,.087,0,.131-.009a7.68,7.68,0,0,1,1.145-.087.874.874,0,0,0,0-1.748,9.5,9.5,0,0,0-1.412.1.875.875,0,0,0,.136,1.74ZM.879,22.812a.877.877,0,0,0,.874-.874,7.539,7.539,0,0,1,2.692-5.778.875.875,0,0,0-1.128-1.338A9.28,9.28,0,0,0,0,21.938.883.883,0,0,0,.879,22.812Zm7.3-19.647A3.165,3.165,0,1,0,11.347,0,3.169,3.169,0,0,0,8.182,3.165Zm4.585,0a1.416,1.416,0,1,1-1.416-1.416A1.419,1.419,0,0,1,12.768,3.165Zm15.727,10.5a4.218,4.218,0,1,0,4.218,4.218A4.223,4.223,0,0,0,28.494,13.668Zm0,6.688a2.47,2.47,0,1,1,2.47-2.47A2.473,2.473,0,0,1,28.494,20.355Z" transform="translate(3.995 2.474)" fill="#353b3e"/>
        <path id="Path_17-8" data-name="Path 17" d="M26.4,15.473a13.352,13.352,0,0,0,.179-2.181A13.3,13.3,0,0,0,13.292,0,13.3,13.3,0,0,0,0,13.292,13.3,13.3,0,0,0,13.292,26.584a13.2,13.2,0,0,0,6.644-1.775c.044.066.092.131.14.192a6.05,6.05,0,0,0,4,2.365,6.454,6.454,0,0,0,.865.061A6.07,6.07,0,0,0,26.4,15.473ZM29.2,21.964a4.317,4.317,0,1,1-4.284-4.926,4.173,4.173,0,0,1,.616.044A4.318,4.318,0,0,1,29.2,21.964ZM21.453,5.132a11.447,11.447,0,0,1,3.379,8.161,11.676,11.676,0,0,1-.17,2,6.071,6.071,0,0,0-5.507,7.942A11.543,11.543,0,0,1,5.127,5.132a11.55,11.55,0,0,1,16.325,0Z" transform="translate(0 11.119)" fill="#353b3e"/>
        <path id="Path_18-8" data-name="Path 18" d="M.752,3.327c.044,0,.083.009.122.009a.874.874,0,0,0,.865-.752,1.36,1.36,0,0,1,.629-.966A.876.876,0,0,0,1.443.132a3.1,3.1,0,0,0-1.434,2.2A.874.874,0,0,0,.752,3.327Z" transform="translate(21.749 29.678)" fill="#353b3e"/>
      </g>
    </g>
    <g id="bubbles" transform="translate(1872.288 -2627.17) rotate(2)">
      <g id="water-bubble-9" data-name="water-bubble" transform="translate(41.231 3165.204) rotate(-2)">
        <path id="Path_15-9" data-name="Path 15" d="M12.987,30.1A15.123,15.123,0,1,0,.155,12.993,15.172,15.172,0,0,0,12.987,30.1ZM3.53,13.471A11.728,11.728,0,0,1,15.114,3.408a12.112,12.112,0,0,1,1.657.12A11.709,11.709,0,1,1,3.53,13.471Z" transform="translate(40.031)" fill="#353b3e"/>
        <path id="Path_16-9" data-name="Path 16" d="M41.152,11.106c.085.009.162.017.239.017a1.709,1.709,0,0,0,1.691-1.469,4.074,4.074,0,0,1,1.879-2.888,1.711,1.711,0,0,0-1.811-2.9,7.5,7.5,0,0,0-3.46,5.305A1.734,1.734,0,0,0,41.152,11.106ZM15.668,28.32c.085,0,.171-.009.256-.017a15.011,15.011,0,0,1,2.238-.171,1.709,1.709,0,0,0,0-3.417,18.577,18.577,0,0,0-2.759.205,1.71,1.71,0,0,0,.265,3.4ZM1.717,44.586a1.714,1.714,0,0,0,1.709-1.709A14.736,14.736,0,0,1,8.688,31.583a1.71,1.71,0,0,0-2.2-2.614A18.138,18.138,0,0,0,0,42.877,1.727,1.727,0,0,0,1.717,44.586Zm14.275-38.4A6.185,6.185,0,1,0,22.178,0,6.194,6.194,0,0,0,15.992,6.185Zm8.962,0a2.768,2.768,0,1,1-2.768-2.768A2.773,2.773,0,0,1,24.954,6.185ZM55.692,26.714a8.244,8.244,0,1,0,8.244,8.244A8.254,8.254,0,0,0,55.692,26.714Zm0,13.071a4.827,4.827,0,1,1,4.827-4.827A4.833,4.833,0,0,1,55.692,39.785Z" transform="translate(7.808 4.834)" fill="#353b3e"/>
        <path id="Path_17-9" data-name="Path 17" d="M51.608,30.242a26.1,26.1,0,0,0,.35-4.263A25.988,25.988,0,0,0,25.979,0,25.988,25.988,0,0,0,0,25.979,25.988,25.988,0,0,0,25.979,51.958,25.8,25.8,0,0,0,38.965,48.49c.085.128.179.256.273.376a11.825,11.825,0,0,0,7.808,4.622,12.612,12.612,0,0,0,1.691.12,11.864,11.864,0,0,0,2.87-23.365Zm5.459,12.686A8.438,8.438,0,1,1,48.7,33.3a8.156,8.156,0,0,1,1.2.085,8.44,8.44,0,0,1,7.168,9.543Zm-15.138-32.9a22.374,22.374,0,0,1,6.6,15.95,22.82,22.82,0,0,1-.333,3.913A11.867,11.867,0,0,0,37.435,45.415,22.561,22.561,0,0,1,10.021,10.029a22.574,22.574,0,0,1,31.908,0Z" transform="translate(0 21.733)" fill="#353b3e"/>
        <path id="Path_18-9" data-name="Path 18" d="M1.47,6.5c.085.009.162.017.239.017A1.709,1.709,0,0,0,3.4,5.05a2.658,2.658,0,0,1,1.23-1.888A1.712,1.712,0,0,0,2.82.258a6.05,6.05,0,0,0-2.8,4.306A1.709,1.709,0,0,0,1.47,6.5Z" transform="translate(42.509 58.005)" fill="#353b3e"/>
      </g>
      <g id="water-bubble-10" data-name="water-bubble" transform="matrix(0.588, -0.809, 0.809, 0.588, 14.914, 3152.177)">
        <path id="Path_15-10" data-name="Path 15" d="M7.995,18.527A9.31,9.31,0,1,0,.1,8,9.339,9.339,0,0,0,7.995,18.527ZM2.173,8.293A7.22,7.22,0,0,1,9.3,2.1a7.456,7.456,0,0,1,1.02.074A7.208,7.208,0,1,1,2.173,8.293Z" transform="translate(24.643)" fill="#353b3e"/>
        <path id="Path_16-10" data-name="Path 16" d="M25.333,6.837c.053.005.1.011.147.011a1.052,1.052,0,0,0,1.041-.9,2.508,2.508,0,0,1,1.157-1.778,1.054,1.054,0,1,0-1.115-1.788,4.619,4.619,0,0,0-2.13,3.266A1.067,1.067,0,0,0,25.333,6.837ZM9.645,17.434c.053,0,.105-.005.158-.011a9.24,9.24,0,0,1,1.378-.105,1.052,1.052,0,0,0,0-2.1,11.437,11.437,0,0,0-1.7.126,1.052,1.052,0,0,0,.163,2.093ZM1.057,27.447A1.055,1.055,0,0,0,2.109,26.4a9.071,9.071,0,0,1,3.24-6.953,1.052,1.052,0,0,0-1.357-1.609A11.166,11.166,0,0,0,0,26.4,1.063,1.063,0,0,0,1.057,27.447ZM9.845,3.808A3.808,3.808,0,1,0,13.653,0,3.813,3.813,0,0,0,9.845,3.808Zm5.517,0a1.7,1.7,0,1,1-1.7-1.7A1.707,1.707,0,0,1,15.362,3.808ZM34.284,16.445a5.075,5.075,0,1,0,5.075,5.075A5.081,5.081,0,0,0,34.284,16.445Zm0,8.046a2.971,2.971,0,1,1,2.971-2.971A2.975,2.975,0,0,1,34.284,24.492Z" transform="translate(4.807 2.976)" fill="#353b3e"/>
        <path id="Path_17-10" data-name="Path 17" d="M31.77,18.617a16.064,16.064,0,0,0,.216-2.624A16,16,0,0,0,15.993,0,16,16,0,0,0,0,15.993,16,16,0,0,0,15.993,31.986a15.884,15.884,0,0,0,7.994-2.135c.053.079.11.158.168.231a7.28,7.28,0,0,0,4.807,2.845A7.765,7.765,0,0,0,30,33,7.3,7.3,0,0,0,31.77,18.617Zm3.361,7.81A5.194,5.194,0,1,1,29.977,20.5a5.023,5.023,0,0,1,.742.053,5.2,5.2,0,0,1,4.412,5.874ZM25.812,6.174a13.774,13.774,0,0,1,4.065,9.819,14.048,14.048,0,0,1-.205,2.409,7.305,7.305,0,0,0-6.626,9.556A13.889,13.889,0,0,1,6.169,6.174a13.9,13.9,0,0,1,19.643,0Z" transform="translate(0 13.379)" fill="#353b3e"/>
        <path id="Path_18-10" data-name="Path 18" d="M.905,4c.053.005.1.01.147.01a1.052,1.052,0,0,0,1.041-.9,1.636,1.636,0,0,1,.757-1.162A1.054,1.054,0,0,0,1.736.159,3.725,3.725,0,0,0,.011,2.809,1.052,1.052,0,0,0,.905,4Z" transform="translate(26.169 35.708)" fill="#353b3e"/>
      </g>
    </g>
  </g>
</svg>
