<svg xmlns="http://www.w3.org/2000/svg" width="75" height="75" viewBox="0 0 75 75">
  <g id="PhoneSVG" transform="translate(-1064 -638)">
    <circle id="Ellipse_49" data-name="Ellipse 49" cx="37.5" cy="37.5" r="37.5" transform="translate(1064 638)" fill="#d12525"/>
    <path id="phone" d="M16.7,10.035c-.494-5.681-6.42-8.468-6.671-8.582a1.259,1.259,0,0,0-.752-.1C2.433,2.487,1.4,6.469,1.362,6.635a1.28,1.28,0,0,0,.026.7c8.16,25.319,25.12,30.012,30.694,31.555.429.119.783.215,1.052.3a1.28,1.28,0,0,0,.933-.054c.171-.078,4.2-1.975,5.184-8.166a1.289,1.289,0,0,0-.124-.791c-.088-.171-2.2-4.181-8.039-5.6a1.263,1.263,0,0,0-1.143.271c-1.844,1.575-4.39,3.253-5.489,3.426-7.367-3.6-11.48-10.513-11.636-11.824-.09-.737,1.6-3.325,3.54-5.43a1.29,1.29,0,0,0,.336-.99Z" transform="translate(1081.387 656.098)" fill="#fff"/>
  </g>
</svg>
