<svg xmlns="http://www.w3.org/2000/svg" xmlns:xlink="http://www.w3.org/1999/xlink" width="1011.869" height="497.979" viewBox="0 0 1011.869 497.979">
  <defs>
    <clipPath id="clip-path">
      <path id="Path_254" data-name="Path 254" d="M1552.964,790.3c-52.524.359-154.231,3.465-154.231,3.465s-3.379,75.694-5.1,78.7-2.052,17.333-6.4,23.029-59.843,3.331-59.843,3.331,15.873-122.075,15.842-123.5-123.466,28.613-124.88,29.052-3.9-1.337,13.965-12.318,55.283-29.726,82.183-36.841c31.933-8.446,68.357-9.267,123.58-5.422S1562.154,790.235,1552.964,790.3Z" transform="translate(-1217.368 -747.595)"/>
    </clipPath>
  </defs>
  <g id="SvgCarCleaning" transform="translate(-140.695 -97.972)">
    <g id="Group_41" data-name="Group 41" transform="translate(155.001 104.479)">
      <path id="Path_470" data-name="Path 470" d="M1148.263,461.424c-42.7-25.987-43.2-58.471-47.471-102.712-6.478-67.114-64.048-49.5-103.231-56.306-57.132-9.924-45.984-125.207-79.37-180.673S584.128,160.326,523.826,182.64s-204.969-48.771-276.139-6.693-4.905,119.059,4.153,181.22-54.619,54.672-86.969,77.942,25.181,128.1,25.181,128.1l956.2,1.547s45.011-77.159,2.009-103.331Z" transform="translate(-169.307 -110.987)" fill="#d12525" opacity="0.6"/>
      <g id="Group_46" data-name="Group 46">
        <path id="Path_179" data-name="Path 179" d="M1161.253,435.73q.144-7.874-.278-15.74c-.442-8.454-.839-17.719-4.19-25.34a20.168,20.168,0,0,0-5.016-7.145c3.224-9.723,5.484-21.37-.706-30.014-5.962-8.326-16.23-9.2-24.5-7.056a37.926,37.926,0,0,0-15.221,8.272c-1.261,1.09-1.211,3.631-.274,4.954,1.117,1.577,2.74,1.4,4.022.338,6.343-5.255,14.529-7.981,22.147-6.749a15.447,15.447,0,0,1,4.617,1.5q.564.274,1.1.6c.09.055.3.2.633.444q.585.431,1.128.915.272.243.535.5c.039.038.205.214.238.244,2.523,2.877,3.414,6.622,3.182,10.805-.3,5.368-2.078,10.59-3.885,15.609a4.247,4.247,0,0,0,1.937,4.958,8.7,8.7,0,0,1,3.173,3.015,9.637,9.637,0,0,1,1.153,2.1,28.323,28.323,0,0,1,1.115,2.93c1.158,3.6,1.765,8.848,2.132,13.246q.758,9.059.7,18.178c-.029,6.295-.784,12.667-.181,18.934.3,3.155,4.113,3.189,4.889.411,1.418-5.083,1.445-10.578,1.543-15.9ZM277.841,361.895c-2.055-5.632-4.9-10.7-7.053-16.273a115.145,115.145,0,0,1-5.156-17.477,3,3,0,0,0-3.9-2.356c-1.677.7-2.319,2.815-1.913,4.8a115.333,115.333,0,0,0,5.206,18.015c2.3,6.02,4.786,12.028,8.819,16.566,1.738,1.956,5.041-.414,4-3.278Zm25.442-141.678c-.548-2.38-2.656-3.651-4.506-2.688a69.091,69.091,0,0,0-17.8,13.415c-11.076,11.506-18.955,26.865-22.735,44.1a103.575,103.575,0,0,0-2.029,29.55c.354,4.813,6.374,4.4,6.1-.454a97.22,97.22,0,0,1,8.794-46.348,76.652,76.652,0,0,1,12.312-18.608,67.593,67.593,0,0,1,15.557-12.674q1.193-.686,2.415-1.318a4.417,4.417,0,0,0,1.91-4.891Z" transform="translate(-226.555 -175.955)" fill="#fdede4"/>
        <path id="Path_180" data-name="Path 180" d="M1120.177,451.331c-41.492-25.253-41.98-56.818-46.129-99.807-6.294-65.216-62.237-48.1-100.312-54.714-55.516-9.643-44.684-121.667-77.126-175.565S571.993,158.747,513.4,180.43s-199.173-47.392-268.331-6.5-4.767,115.693,4.035,176.1-53.075,53.126-84.51,75.738,24.469,124.478,24.469,124.478l929.166,1.5s43.739-74.977,1.952-100.409Z" transform="translate(-155 -104.479)" fill="#fdede4"/>
        <path id="Path_181" data-name="Path 181" d="M1663.448,359.629s4.344,116.679,1.862,119.677-187.109,1-190.522-4-3.724-112.681,1.552-116.179,185.247-3,187.109.5Zm74.54,52.95c.71-.127,1.12-.263,1.156-.405.374-1.5-3.7-21.555-3.7-21.555l-.455,0c-2.888-17.34-6.527-31.81-8.576-32.756-4.869-2.247-7.116.374-7.116.374s-.119.037-.338.13a10.316,10.316,0,0,1-1.4-3.19c-.439-1.748-3.052-1-2.686.741a11.019,11.019,0,0,0,1.659,3.9c-3.278,2.461-8.74,8.46-12.221,22.385-.669,2.675-1.4,5.57-2.144,8.609l-.853.005s-4.869,19.1-4.494,21.349c.025.15.24.287.609.411-2.719,15.289-3.639,30.161,1.638,37.417,8.989,12.36,28.839,12.734,37.454.749C1740.032,445.869,1739.811,429.919,1737.988,412.579Zm-19.319-50.388a11.63,11.63,0,0,0,1.756,1.221,1.28,1.28,0,0,0,1.915-.9c4.869,3.821,7.957,15.139,9.8,28.124l-25.985.157C1710.243,372.578,1716.3,364.7,1718.669,362.191Zm14.856,79.946c-2.247,8.614-10.113,14.982-22.847,9.738-10.413-4.288-11.058-17.843-8.286-38.614a284.522,284.522,0,0,0,31.759-.258C1734.8,426.831,1734.38,438.864,1733.526,442.137Z" transform="translate(-990.251 -262.809)" fill="#fadad2"/>
        <path id="Path_182" data-name="Path 182" d="M2168.326,412.579c.71-.127,1.12-.263,1.156-.405.375-1.5-3.7-21.555-3.7-21.555l-.455,0c-2.888-17.34-6.527-31.81-8.576-32.756-4.869-2.247-7.116.374-7.116.374s-.119.037-.338.13a10.316,10.316,0,0,1-1.4-3.19c-.439-1.748-3.053-1-2.686.741a11.023,11.023,0,0,0,1.659,3.9c-3.279,2.461-8.74,8.46-12.221,22.385-.668,2.675-1.4,5.57-2.144,8.609l-.853.005s-4.869,19.1-4.495,21.349c.025.15.24.287.61.411-2.719,15.289-3.64,30.161,1.638,37.417,8.989,12.36,28.839,12.734,37.454.749C2170.37,445.869,2170.149,429.919,2168.326,412.579Zm-19.319-50.388a11.648,11.648,0,0,0,1.756,1.221,1.28,1.28,0,0,0,1.915-.9c4.869,3.821,7.957,15.139,9.8,28.124l-25.985.157C2140.581,372.578,2146.641,364.7,2149.007,362.191Zm14.856,79.946c-2.247,8.614-10.113,14.982-22.847,9.738-10.413-4.288-11.058-17.843-8.286-38.614A284.527,284.527,0,0,0,2164.49,413C2165.139,426.831,2164.718,438.864,2163.864,442.137Z" transform="translate(-1404.484 -262.809)" fill="#fadad2"/>
        <path id="Path_183" data-name="Path 183" d="M1182.056,412.579c.71-.127,1.12-.263,1.156-.405.374-1.5-3.7-21.555-3.7-21.555l-.455,0c-2.888-17.34-6.528-31.81-8.576-32.756-4.869-2.247-7.116.374-7.116.374s-.119.037-.338.13a10.322,10.322,0,0,1-1.4-3.19c-.439-1.748-3.052-1-2.686.741a11.03,11.03,0,0,0,1.659,3.9c-3.278,2.461-8.74,8.46-12.221,22.385-.669,2.675-1.4,5.57-2.144,8.609l-.853.005s-4.869,19.1-4.495,21.349c.025.15.24.287.61.411-2.72,15.289-3.64,30.161,1.638,37.417,8.989,12.36,28.839,12.734,37.454.749C1184.1,445.869,1183.879,429.919,1182.056,412.579Zm-19.319-50.388a11.642,11.642,0,0,0,1.756,1.221,1.28,1.28,0,0,0,1.915-.9c4.869,3.821,7.957,15.139,9.8,28.124l-25.985.157C1154.311,372.578,1160.37,364.7,1162.737,362.191Zm14.857,79.946c-2.247,8.614-10.112,14.982-22.847,9.738-10.413-4.288-11.058-17.843-8.285-38.614A284.516,284.516,0,0,0,1178.22,413C1178.869,426.831,1178.448,438.864,1177.594,442.137ZM657.021,360.205c-3.191-2.234-105.554,2.163-125.3,3.033v9.624l126-1.707S660.553,362.678,657.021,360.205ZM599.09,430.852c-1.8-1.259-35.106-.412-67.366.724v11.149L599.8,441.8S602.622,433.325,599.09,430.852Z" transform="translate(-393.869 -262.809)" fill="#fadad2"/>
        <ellipse id="Ellipse_18" data-name="Ellipse 18" cx="68.701" cy="7.095" rx="68.701" ry="7.095" transform="translate(766.098 451.556)" fill="#827893"/>
        <ellipse id="Ellipse_19" data-name="Ellipse 19" cx="82.974" cy="4.59" rx="82.974" ry="4.59" transform="translate(18.377 441.982)" fill="#827893"/>
        <ellipse id="Ellipse_20" data-name="Ellipse 20" cx="368.445" cy="15.635" rx="368.445" ry="15.635" transform="translate(129.207 432.072)" fill="#827893"/>
        <path id="Path_184" data-name="Path 184" d="M512.662,743.109s1.709-.466,1.864,9.323c.039,2.486.274,5.582.137,8.54s-2.313,7.619-2.313,7.619l-22.685,1.864L441.5,754.917l.311-5.283s0-3.108,1.243-3.729,2.8.311,3.729-.932.311-1.864,1.864-3.418,2.8-1.864,6.215-3.729,12.12-10.255,22.375-13.362a31.584,31.584,0,0,1,23,2.175c3.418,1.864,8.39,4.661,10.566,5.283S512.662,743.109,512.662,743.109Z" transform="translate(-336.66 -496.796)" fill="#3b4444"/>
        <path id="Path_185" data-name="Path 185" d="M452.055,893.144c4.972,40.087,26.1,118.709,26.1,118.709l23.307-7.458-8.592-55.171-2.993-19.214-6.128-39.351L462,852.746s-14.916.311-9.944,40.4Z" transform="translate(-342.709 -578.932)" fill="#eb4450"/>
        <path id="Path_186" data-name="Path 186" d="M585.659,1255.16l.006.03-.007-.022Z" transform="translate(-428.067 -834.09)" fill="#ea9169"/>
        <path id="Path_187" data-name="Path 187" d="M525.147,1277.755l0,.1a1.806,1.806,0,0,0,.265.544c.955,1.029,5.553-.516,11.7-2.75l-2.021-3.391s-9.975,3.359-9.944,5.5Z" transform="translate(-389.699 -844.931)" fill="#1a1a1a"/>
        <path id="Path_188" data-name="Path 188" d="M542.374,1267.552a53,53,0,0,1,5.823-2.288,30.206,30.206,0,0,1,9.828-1.938q.205.911.483,1.8a16.72,16.72,0,0,0,1.589,3.688c2.038,3.315,12.668,9,14.819,9.51s9.263,1.09,7.647,2.724-15.333,3.252-26.188,3.174-15.518.155-15.741-2.008c-.168-1.619.8-5.564,1.478-11.888C542.206,1269.451,542.294,1268.523,542.374,1267.552Z" transform="translate(-399.505 -839.266)" fill="#ea9169"/>
        <path id="Path_189" data-name="Path 189" d="M540.632,1285.35c.223,2.163,4.886,1.93,15.741,2.008s24.571-1.54,26.188-3.175-5.5-2.21-7.646-2.724-12.781-6.195-14.819-9.51a16.717,16.717,0,0,1-1.589-3.688c-1.762,0-6.6.3-16.4,5.2C541.436,1279.787,540.464,1283.731,540.632,1285.35Z" transform="translate(-399.505 -842.397)" fill="#fff"/>
        <path id="Path_190" data-name="Path 190" d="M540.242,1283.273s8.541,3.611,12.011,2.195,1.469-5.665,2.427-6.334,4.713-1.479,5.621-.9,6.6,5.572,11.214,6.584,9.537,2.008,11.028,3.487,1.429,3.035,1.105,3.362-9.115,2.941-23.092,3.33-21.1.124-21.685-.779.935-7.813,1.372-10.941Z" transform="translate(-398.317 -848.594)" fill="#a34b22"/>
        <path id="Path_191" data-name="Path 191" d="M560.556,1316.528c-13.976.388-21.1.124-21.685-.779-.253-.391-.112-1.906.165-3.753,2.066.167,4.032.509,8.95.811,8.356.514,7.386,1.495,15.132,1.728,6.835.206,17.272-1.33,20.672-2.505a1.472,1.472,0,0,1-.142,1.167C583.325,1313.525,574.533,1316.139,560.556,1316.528Z" transform="translate(-398.317 -870.128)" fill="#1a1a1a"/>
        <path id="Path_192" data-name="Path 192" d="M485.12,1039.314c2.807,20.142,7.908,39.907,12.523,59.689,1.31,5.615,2.642,11.224,3.9,16.849.08.355-.461.508-.548.151-2.419-10.005-4.694-20.047-7.029-30.073-2.312-9.927-4.663-19.848-6.616-29.853-1.081-5.536-2.028-11.1-2.768-16.691C484.545,1039.086,485.077,1039.011,485.12,1039.314Z" transform="translate(-363.979 -697.106)" fill="#be2328"/>
        <path id="Path_193" data-name="Path 193" d="M491.849,1037.26l26.9,28.956L515.756,1047Z" transform="translate(-368.585 -695.926)" fill="#3a1714"/>
        <path id="Path_194" data-name="Path 194" d="M271.113,1216.528c4.727,16.159,9.163,15.227,10.406,15.227s.989-.621,1.84-3.107.4-4.35.18-8.7.462-8.39,1.2-13.052c.1-.665.693-2.831.841-3.4a15.721,15.721,0,0,1,.832-2.384A9.9,9.9,0,0,1,288,1198.5l-8.834-16.293s-2.524,4.363-3.952,6.271l-.057.078a12.125,12.125,0,0,1-2.772,3.107c-2.624,1.672-5.543,2.893-6.248,3.729C265.09,1196.639,266.386,1200.368,271.113,1216.528Z" transform="translate(-225.253 -787.835)" fill="#ea9169"/>
        <path id="Path_195" data-name="Path 195" d="M268.684,1227.393c4.727,16.159,9.953,16.781,11.2,16.781s2.319-1.554,3.169-4.04.458-4.972.237-9.323a75.628,75.628,0,0,1,.723-14.605,18.775,18.775,0,0,1,.387-1.843,15.719,15.719,0,0,1,.832-2.384c-1.593-.8-8.537-5.143-11.2-12.632l-.057.078a12.2,12.2,0,0,1-2.816,2.2c-2.624,1.672-6.092,3.493-6.8,4.329C263.311,1207.194,263.957,1211.234,268.684,1227.393Z" transform="translate(-224.067 -798.701)" fill="#fff"/>
        <path id="Path_196" data-name="Path 196" d="M268.683,1232.412c4.727,16.159,9.953,16.781,11.2,16.781s2.6-1.243,3.451-3.729.176-5.283-.045-9.634a75.633,75.633,0,0,1,.723-14.605,18.746,18.746,0,0,1,.387-1.843,3.754,3.754,0,0,0-.665-.721c-1.8-1.571-6.593-2.118-8.788-1.037-1.3.64-2.875.977-3.926-.75-1.452-2.39-1.172-7.955-1.107-9.612-2.624,1.672-4.849,2.871-5.554,3.707-1.047,1.243-.4,5.283,4.326,21.442Z" transform="translate(-224.067 -803.72)" fill="#a34b22"/>
        <path id="Path_197" data-name="Path 197" d="M266.528,1213.17c-.335,1.855.1,4.931.928,8.38.9,3.729.785,4.972,1.034,9.012.095,1.536,3.827,13.363,6.563,17.4,2.28,3.367,4.825,4.972,6.064,4.525a2.437,2.437,0,0,1-1.239.447c-1.243,0-6.469-.622-11.2-16.781s-5.373-20.2-4.326-21.442A11.126,11.126,0,0,1,266.528,1213.17Z" transform="translate(-224.066 -807.465)" fill="#1a1a1a"/>
        <path id="Path_198" data-name="Path 198" d="M300.1,937.947s11.809,23.307,16.159,22.685,26.414-48.789,31.076-62.462,15.227-52.828,15.227-52.828,15.4-47.894,4.525-46.03a22.481,22.481,0,0,1-6.526.311A13.094,13.094,0,0,1,352.311,795s-3.107,1.243-12.12,16.781c-5.8,9.994-10.093,30.066-14.547,47.446-.1.373-.193.746-.286,1.116q-1.195,4.694-2.368,9.394c-.1.411-.205.817-.3,1.221-1.246,4.972-4.342,17.77-5.18,21.308C311.913,915.884,300.1,937.947,300.1,937.947Z" transform="translate(-247.006 -542.317)" fill="#eb4450"/>
        <path id="Path_199" data-name="Path 199" d="M364.692,992.076l.573,2.1c-.091-.261-.181-.522-.267-.783-.114-.408-.22-.818-.327-1.229Z" transform="translate(-287.946 -667.277)" fill="#464c7b"/>
        <path id="Path_200" data-name="Path 200" d="M351.951,927.785a60.831,60.831,0,0,0,8.04,2.1c.792.091,1.942.382,2.5-.391a10.443,10.443,0,0,0,.809-2.59q1.537-4.923,3.072-9.846c.989-3.16,2.138-6.317,2.972-9.522a3.168,3.168,0,0,0,.075-.366,20.38,20.38,0,0,1-5.456,3.664c-1.85.857-6.542,3.462-7.965.881a7.906,7.906,0,0,1-.556-1.3c.255-.893.5-1.788.717-2.691.111.379.226.757.35,1.132.156.556.318,1.109.5,1.649l-.236-.865c.051.144.1.289.153.433.368,1.023.766,1.447,1.934,1.433,1.884-.022,3.732-1.163,5.365-1.987a23.842,23.842,0,0,0,5.031-3.531,1.476,1.476,0,0,0-.321-.393,4.354,4.354,0,0,0-1.3-.457l-2.288-.759c-1.534-.512-6.179-1.946-7.7-2.492.083-.33.169-.662.255-.994,1.978.6,7.043,2.2,9.007,2.854,1.174.388,3.063.645,3.578,1.991.557,1.462-.526,3.512-.953,4.883q-1.009,3.236-2.022,6.475c-1.321,4.221-2.492,8.522-3.966,12.693-.493,1.39-1.485,1.368-2.817,1.268a54.491,54.491,0,0,1-9.079-2.215c-.662-.232-.377-1.3.293-1.057Zm22.433-64.01a18.69,18.69,0,0,0,10.027-4.86c.532-.505,1.33.288.807.807a18.111,18.111,0,0,1-10.676,5.217C373.884,865.012,373.726,863.887,374.384,863.775Zm15.668,42.286a.634.634,0,0,1-.356-.752c1.868-6.654,3.712-13.313,5.444-20,.2-.753,1.351-.418,1.161.337-1.688,6.7-3.454,13.382-5.371,20.02a.635.635,0,0,1-.878.4Z" transform="translate(-279.456 -582.741)" fill="#be2328"/>
        <path id="Path_201" data-name="Path 201" d="M560.133,825.243l4.442,11.026,2.26,5.613s.417,1.9.964,4.506c1.02,4.84,2.488,12.113,2.565,14.142.119,3.121.863,3.959,3.71,6.387s1.769,8.225,3.513,11.748c1.212,2.451,15.577,17.474,25.326,26.233.244.22.484.438.724.649a42.13,42.13,0,0,0,7.008,5.421,2.578,2.578,0,0,0,.959.309c1.49.041,2.8-2.964,3.84-6.62a80.755,80.755,0,0,0,2.172-13.353s-20.262-21.659-21.7-25.224-5.554-40.015-6.11-44.016Z" transform="translate(-411.882 -559.478)" fill="#3b4444"/>
        <path id="Path_202" data-name="Path 202" d="M695.564,1047.05a2.579,2.579,0,0,0,.916.42c1.474.216,2.55-.983,4.594-6.121l-5.983-4.537C694.567,1039.072,694.481,1044.585,695.564,1047.05Z" transform="translate(-497.217 -695.642)" fill="#3a1714"/>
        <path id="Path_203" data-name="Path 203" d="M741.1,1037.88a4.4,4.4,0,0,0-.551.307,4.009,4.009,0,0,0-1.216,1.44,3.736,3.736,0,0,1-.744,1.123,2.622,2.622,0,0,1-2.281.291,6.048,6.048,0,0,1-2.752-1.288,6.734,6.734,0,0,1-1.214-1.548c-.959-1.574-1.661-3.484-1.118-5.245.156-.506.409-.976.615-1.464a8.435,8.435,0,0,0,.639-3.7,8.529,8.529,0,0,0-.305-1.866c-.12-.425-.532-1.046-.507-1.469a13.392,13.392,0,0,1,2.136,1.406q1.908,1.281,3.794,2.594c.865.6,1.737,1.206,2.562,1.865,1.9,1.516,3.175,3.356,2.9,5.226a2.952,2.952,0,0,1-.759,1.59A3.9,3.9,0,0,1,741.1,1037.88Z" transform="translate(-520.242 -687.808)" fill="#f49a7f"/>
        <path id="Path_204" data-name="Path 204" d="M701.762,1034.63l-7.483-5.99s1-6.884,2.275-8.473,14.535,8.289,14.535,8.289l4.946,4.958-1.175,3.442Z" transform="translate(-496.94 -684.979)" fill="#f49a7f"/>
        <path id="Path_205" data-name="Path 205" d="M729.85,1041.68s-15.821,1.557-16.734,2.508-.56,3.119.08,4.039,18.611-1.923,18.909-2.551.243-3.424-.7-3.716a5.433,5.433,0,0,0-1.56-.28Z" transform="translate(-508.533 -698.729)" fill="#3a1714"/>
        <path id="Path_206" data-name="Path 206" d="M703.375,1027.771c.932-.019.6-.944,1.218-1.267s1.56.28,2.187.578.6-.944,1.84-1.28a2.715,2.715,0,0,1,1.566.378q.279.121.553.254c-.041-.363.368-.888.517-1.175a7.593,7.593,0,0,1-3.161-2.4,26.631,26.631,0,0,1-6.994-.017c-2.808-.566-6.218-1.074-6.218-1.074s1.2-13.97,8.175-11.208c.285.113,6.765,5.427,7.709,6.03s1.31,3.393,2.895,4.916,3.784,2.722,3.187,3.977a1.593,1.593,0,0,1-.273.4c.769.221,1.542.413,2.331.592,1.084.246.774,1.709-.211,1.826a8.565,8.565,0,0,1-3.238-.373c-.461-.125-.918-.265-1.377-.4.017.045.035.091.05.136a2.209,2.209,0,0,1,.08.326,1.91,1.91,0,0,1,.028.413l.037.024a20.323,20.323,0,0,1,2.179,1.427c-.093.414-.157.9-.269,1.388-.286,1.249-2.15,1.286-3.082,1.3s-.932.018-1.224.957-1.846.969-3.1.372-1.846.969-3.405.689-5.088-5.8-4.479-6.438S702.443,1027.789,703.375,1027.771Z" transform="translate(-497.324 -678.767)" fill="#f49a7f"/>
        <path id="Path_207" data-name="Path 207" d="M713.829,1041.326a11.144,11.144,0,0,0,2.457,3.253c.564.408.076,1.363-.542.971a9.805,9.805,0,0,1-2.9-3.621A.578.578,0,0,1,713.829,1041.326Zm3.55-.476a16.447,16.447,0,0,0,2.993,2.821c.57.407.052,1.374-.54.967a15.124,15.124,0,0,1-3.331-3.082C716.1,1041.055,716.963,1040.357,717.379,1040.851Zm4.371-.937c.821.5,1.62,1.008,2.486,1.425.658.317.1,1.3-.551.988a12.387,12.387,0,0,1-2.577-1.546C720.627,1040.391,721.225,1039.6,721.75,1039.914Zm-.335-9.774c.707,1.219,1.382,2.447,2.163,3.621.409.615-.546,1.179-.969.593a21.883,21.883,0,0,1-2.192-3.6C720.109,1030.084,721.028,1029.472,721.415,1030.14Zm-11.671,4.267c2.005.51,3.645-.04,5.6-.42,1.128-.219,1.389.233,2.066,1.108.384.5-.429,1.143-.856.688q-.336-.351-.656-.717a7.292,7.292,0,0,1-.966.294,16.638,16.638,0,0,1-2.049.434,7.788,7.788,0,0,1-3.435-.21A.607.607,0,0,1,709.744,1034.407Z" transform="translate(-506.28 -691.229)" fill="#e58369"/>
        <path id="Path_208" data-name="Path 208" d="M676.671,1015.2c.244.22.484.438.724.649a36.873,36.873,0,0,1,.007-9.62c.514-3.754,1.688-8.95,6.174-9.635a.288.288,0,0,0-.079-.569c-4.343.653-5.877,5.239-6.511,8.989a36.871,36.871,0,0,0-.315,10.187Z" transform="translate(-485.639 -669.776)" fill="#1a1a1a"/>
        <path id="Path_209" data-name="Path 209" d="M647.81,922.838c3.539,5.156,5.671,8.711,8.959,12.561.451.528-.915.86-1.369.345a70.8,70.8,0,0,1-8.9-12.381c-.314-.564.524-1.671,1.311-.525Z" transform="translate(-466.602 -623.058)" fill="#fff"/>
        <path id="Path_210" data-name="Path 210" d="M529.759,763.469c-.123.175-3.884,4.506-14.139,9.478s-21.423,6.333-22.356,7.576-.621,3.729-.621,6.526-2.175,3.729-3.107,5.9,3.23,19.08,3.936,24.4-17.318-12.4-17.318-12.4l-10.877-35.426,18.645-21.442L500.7,753.37s11.187-12.12,12.741-17.4-.223-6.292-.223-6.292,1.639-.641,3.106,1.582-.379,8.556-4.729,14.461-14.916,13.984-14.916,15.227,9.323,10.877,10.565,11.5,16.2-4.222,22.383-11.648c0,0,.9,1.585.128,2.674Z" transform="translate(-351.737 -500.842)" fill="#eb4450"/>
        <path id="Path_211" data-name="Path 211" d="M531.546,972.4a35.922,35.922,0,0,0,6.526,8.7c2.588,2.38,2.176,2.8,2.176,3.729a15.587,15.587,0,0,1-.932,3.418l-5.778-1.556-2.923-12.117Z" transform="translate(-393.165 -654.798)" fill="#f49a7f"/>
        <path id="Path_212" data-name="Path 212" d="M501.26,995.732s16.5,13.174,16.607,14.724-1.339,7.57-2.226,8.255-9.486,6.895-10.747,6.672-25.613-18.766-25.988-19.675-.276-8.392.3-9.055,10.035-3.506,10.035-3.506Z" transform="translate(-360.238 -667.956)" fill="#efe4da"/>
        <path id="Path_213" data-name="Path 213" d="M483.756,1004.753c5.37,4.316,10.9,8.429,16.483,12.46q2.065,1.49,4.138,2.969c1.242.887,3.025,2.718,4.526,2.829,1.484.109,3.436-1.567,4.722-2.3q2.307-1.321,4.62-2.63c.612-.346,1.236.548.621.911q-2.539,1.5-5.086,2.991c-1.367.8-2.914,2.084-4.432,2.534-1.1.325-2.017-.714-2.856-1.31q-2.442-1.735-4.876-3.481c-6.328-4.538-12.6-9.155-18.672-14.035-.622-.5.192-1.433.812-.934Z" transform="translate(-362.798 -675.225)" fill="#e3d4c8"/>
        <path id="Path_214" data-name="Path 214" d="M503.939,970.254s5.685,10.879,4.817,11.964c-.777.971,1.381,3.622,1.867,4.335,1.127,1.656,2.312,3.266,3.461,4.907.625.893,1.725,2.275.27,3.045a2.428,2.428,0,0,1-2.4-.5,21.347,21.347,0,0,1-2.484-2.128l-2.1-1.991a5.951,5.951,0,0,0-1.522-1.161c-2-.932-1.683.991-2.054,2.542-.166,2.6.135,3.819-.1,5.742a1.36,1.36,0,0,1-.6,1.118c-.531.258-1.136-.163-1.534-.6s-.838-.957-1.428-.944c-.535.011-.961.471-1.486.574-.768.151-1.464-.493-1.873-1.16a4.867,4.867,0,0,0-2.034-2.047,3.649,3.649,0,0,1-1.608-2.334c-.631-2.508-.091-5.316-.275-7.881a18.253,18.253,0,0,0-.994-5.538c-1.647-3.321-3.551-6.517-5.029-9.916a114.876,114.876,0,0,0,13.47,1.567c1.128.064,2.755,1.106,3.639.4Z" transform="translate(-365.402 -652.191)" fill="#f49a7f"/>
        <path id="Path_215" data-name="Path 215" d="M477.117,738.07s-22.063,25.482-24.239,38.844,8.371,48.911,9.924,50.776,14.916.311,19.578-4.04c0,0-9.458-38.5-6.972-44.094s24.083-26.88,27.5-34.649-1.243-8.08-1.243-8.08l-24.55,1.243Z" transform="translate(-343.688 -505.431)" fill="#3b4444"/>
        <path id="Path_216" data-name="Path 216" d="M473.994,752.712a84.1,84.1,0,0,1,6.268-11.219,67.824,67.824,0,0,1,7.553-9.9.483.483,0,0,1,.726.638c-2.566,3.388-5.216,6.663-7.518,10.247a112.489,112.489,0,0,0-5.982,10.754A.585.585,0,0,1,473.994,752.712Zm14.413,15.6c.081-.687,1.166-.7,1.092,0a78.96,78.96,0,0,0-.371,8.707.573.573,0,0,1-1.146,0A58.481,58.481,0,0,1,488.407,768.315Zm-14.536,45.467c5.982,2.129,12.48-.224,18.111-2.62.323-.14.572.354.246.494-5.6,2.405-12.16,4.811-18.136,2.825Zm32.146-88.511a16.944,16.944,0,0,1,7.7,4.172c2.165,2.259,1.715,5.229,1.045,8.016-.085.354-.629.2-.546-.15a13.684,13.684,0,0,0,.535-4.192,5.38,5.38,0,0,0-1.828-3.6,17.438,17.438,0,0,0-7.064-3.667A.3.3,0,0,1,506.017,725.27Z" transform="translate(-357.186 -498.096)" fill="#1a1a1a"/>
        <path id="Path_217" data-name="Path 217" d="M642.043,723.948a17.118,17.118,0,0,1,3.273-2.964c1.742-1.125,2.274-3.7,5.692-4.011,2.542-.231,9.568-4.878,12.12-5.594,2.012-.565-1.888-.725.039.085a3.387,3.387,0,0,0,.6.216,3.692,3.692,0,0,0,.71.044c2.867.047,5.887,1.758,8,3.615a9.445,9.445,0,0,1,2.315,2.877,5.723,5.723,0,0,1,.532,1.691,5.126,5.126,0,0,1,.05.864c0,.175-.175.77-.1.9,0,0-.353-2-.483,2.294s.932,11.5-5.843,14.42c-7.945,3.427-23.114-7.8-23.114-7.8l-3.782-6.642Z" transform="translate(-463.819 -488.996)" fill="#3a1714"/>
        <path id="Path_218" data-name="Path 218" d="M609,750.486a30.763,30.763,0,0,0,1.107-5.173l0-.254.035-.007a32.069,32.069,0,0,0,.255-4.431,20.4,20.4,0,0,0,3.961,1.733,14.342,14.342,0,0,0,2.987.074c.7-.084,1.523-.165,1.523-.165a12.9,12.9,0,0,0,2.379,2.658,8.464,8.464,0,0,0,2.673,1.746,3.666,3.666,0,0,0,3.1-.177,6.952,6.952,0,0,1,.618-4.42c.807-1.612,3.479-2.892,5-1.458a3.484,3.484,0,0,1,.971,2.39,5.041,5.041,0,0,1-.176,1.553,3.469,3.469,0,0,1-.658,1.542s-2.293,1.846-2.293,1.846-.147,1.907.649,1.9a5.926,5.926,0,0,0,2.019-.9q1.31-.644,2.618-1.291a1.137,1.137,0,0,1,.573-.165,1.224,1.224,0,0,1,.41.135,10.683,10.683,0,0,0,5.664.919,1.277,1.277,0,0,1,.77.064,1.162,1.162,0,0,1,.31.3,13.053,13.053,0,0,0,1.672,1.986c.851.718,2.3,4.469,2.705,3.978,1.08-1.32-.164.086-.164.545q0,.932-2.8,2.8a26.515,26.515,0,0,1-3.375,1.989c-.615.307-1.414,2.113-2.539,3.731-.762,1.1-.948,2.023-1.928,2.011-.361,0-1.175-.859-1.619-1.545a8.355,8.355,0,0,0-2.374,1.028c-.288.15-.741-.245-1.052-.1-.179.384-1.061.985-1.259.909-1.13-.434-2.312.42-3.07.607-2.409.6-3.366-1.538-3.823-2.407-1.37-2.607-1.125-5.073-1.525-6.461-.071-.253-.158-.422-.266-.474a4.238,4.238,0,0,0-1.208-.368q-.186-.029-.374-.044a2.249,2.249,0,0,0-1.556.536,3.829,3.829,0,0,0-.621,2.175c-2.854,3.839-10.255,6.215-12.12,4.04C603.9,761.158,607.451,755.458,609,750.486Z" transform="translate(-440.616 -507.437)" fill="#f49a7f"/>
        <path id="Path_219" data-name="Path 219" d="M700.888,779.769a1.8,1.8,0,0,0-.195-.19c-.422-.368-.866-.709-1.31-1.05a6.115,6.115,0,0,0-1.665-1.014.751.751,0,0,0-.362-.054c-.5.083-.263.768.024.951a21.683,21.683,0,0,1,2.321,1.638c.275.232.507.574.907.515a.464.464,0,0,0,.389-.627A.7.7,0,0,0,700.888,779.769Z" transform="translate(-498.706 -531.193)" fill="#3a1714"/>
        <path id="Path_220" data-name="Path 220" d="M693.144,784.158a.614.614,0,0,0-.582-.368,1.732,1.732,0,0,0-1,.388.931.931,0,0,0-.424,1.14c.429.874,1.643.349,2.124-.18A.674.674,0,0,0,693.144,784.158Z" transform="translate(-494.899 -535.208)" fill="#1a1a1a"/>
        <path id="Path_221" data-name="Path 221" d="M648.576,782.715c-.071-.253-.158-.422-.266-.474a4.254,4.254,0,0,0-1.208-.369c-.1-.738-.188-1.474-.289-2.207-.109-.807,1.126-.931,1.249-.136C648.225,780.589,648.408,781.651,648.576,782.715Zm14.757,5.271a2.211,2.211,0,0,0-.693-.586c-.362-.2-.641.372-.284.579a2.528,2.528,0,0,1,.509.413C663.113,788.64,663.548,788.268,663.332,787.986Z" transform="translate(-466.839 -532.168)" fill="#e58369"/>
        <path id="Path_222" data-name="Path 222" d="M677.769,804.958c-.288.15-.734-.021-1.052-.1a15.635,15.635,0,0,1-.766-2.084c-.139-.618.423-.592.564.031C676.777,803.984,677.4,803.823,677.769,804.958Z" transform="translate(-485.306 -546.964)" fill="#ce735c"/>
        <path id="Path_223" data-name="Path 223" d="M664.419,709.763s2.752.874,9.7,8.455,19.477,22.514,21.372,22.2-7.157-11.142-7.157-11.142,9.866-7.685,7.023-16.214-12.965-13.994-18.335-13.362S664.419,709.763,664.419,709.763Z" transform="translate(-478.007 -481.858)" fill="#eb4450"/>
        <path id="Path_224" data-name="Path 224" d="M701.852,722.266a.832.832,0,0,1,1.157,0,12.145,12.145,0,0,1,1.523,1.771.834.834,0,0,1-1.308,1.009c-.435-.56-.91-1.085-1.371-1.623A.839.839,0,0,1,701.852,722.266ZM700,724.172a.872.872,0,0,1,.826-.163,1.611,1.611,0,0,1,.764.492c.355.344.7.7,1.025,1.074a.8.8,0,0,1-1.136,1.136q-.582-.464-1.124-.974a1.5,1.5,0,0,1-.509-.747A.854.854,0,0,1,700,724.172Zm-1.726-5.388a.9.9,0,0,1,1.226-.321c.467.356.926.722,1.388,1.086a.875.875,0,0,1-1.059,1.372c-.412-.3-.827-.6-1.233-.911A.92.92,0,0,1,698.278,718.785Zm-1.745,1.309a.853.853,0,0,1,1.113-.222c.47.349.905.729,1.345,1.115a.893.893,0,0,1,0,1.256.911.911,0,0,1-1.256,0c-.387-.331-.775-.655-1.134-1.017a.865.865,0,0,1-.068-1.132Zm5.673,16a30.111,30.111,0,0,0,6.568,5.126c.618.354-.01,1.229-.622.9a22.625,22.625,0,0,1-6.234-5.324C701.421,736.251,701.695,735.576,702.206,736.1Z" transform="translate(-498.256 -493.703)" fill="#be2328"/>
        <ellipse id="Ellipse_21" data-name="Ellipse 21" cx="45.682" cy="47.394" rx="45.682" ry="47.394" transform="translate(262.854 339.277) rotate(-1.289)" fill="#353a3d"/>
        <path id="Path_225" data-name="Path 225" d="M900.908,1002.545a57.021,57.021,0,1,1-55.726,58.287A57.021,57.021,0,0,1,900.908,1002.545Zm2.258,100.5a43.507,43.507,0,1,0-44.473-42.518A43.506,43.506,0,0,0,903.167,1103.047Z" transform="translate(-592.614 -673.905)"/>
        <ellipse id="Ellipse_22" data-name="Ellipse 22" cx="45.682" cy="47.394" rx="45.682" ry="47.394" transform="translate(705.978 329.298) rotate(-1.289)" fill="#353a3d"/>
        <path id="Path_226" data-name="Path 226" d="M2111.845,975.334a57.021,57.021,0,1,1-55.726,58.287A57.02,57.02,0,0,1,2111.845,975.334Zm2.258,100.5a43.507,43.507,0,1,0-44.473-42.518A43.507,43.507,0,0,0,2114.1,1075.836Z" transform="translate(-1360.431 -656.651)"/>
        <path id="Path_227" data-name="Path 227" d="M615.366,908.291c243.451,5.185,672.7-3.712,680.1-11.457s12.78-42.421,3.425-51.307-14.623-12.429-13.208-17.344-1.212-13.2-3.99-14.61-9.933-21.394-14.005-25.88-17.819-5.093-26.991-5.8-48.613-17.524-93.7-29.939-68.574-25.315-137.326-24.585-90.253,3.656-132.157,22.094-48.184,28.753-74.039,37.065-64.447,11.214-107.8,19.513-79.4,15.619-91.386,25.654-8.92,76.173,11.08,76.6Z" transform="translate(-435.413 -499.414)" fill="#7cccc4"/>
        <path id="Path_228" data-name="Path 228" d="M1020.86,1199.536c1.9-5.245,3.877-9.268,5.243-9.615,3.945-1,328.457-5.617,328.457-5.617l5.683,3.955s.32,3.244.615,7.922C1258.988,1198.446,1133.627,1199.866,1020.86,1199.536Z" transform="translate(-704.015 -789.162)" fill="#3b4444"/>
        <path id="Path_229" data-name="Path 229" d="M1363.094,873.761c15.24,19.495,16.813,21.6,15.33,30.327s-12.93,69.72-19.632,77.042-197.629,12.611-197.629,12.611,124.154-9.282,126.259-10.7a24.525,24.525,0,0,0,4.33-4.217s50.486-.982,55.152-3.833,9.256-15.925,10-23.419S1363.094,873.761,1363.094,873.761Z" transform="translate(-792.977 -592.257)" fill="#3b4444"/>
        <path id="Path_230" data-name="Path 230" d="M1142.946,1013.693a.772.772,0,0,1-.768-.7c-1.307-14.453-7.541-86.856-1.871-92.951,5.437-5.845,9.422-9.133,24.761-16.084a.772.772,0,1,1,.637,1.406c-15.084,6.835-18.978,10.041-24.269,15.729-3.77,4.053-1.462,50.407,2.279,91.76a.772.772,0,0,1-.769.842Z" transform="translate(-778.266 -611.358)" fill="#3b8680"/>
        <path id="Path_231" data-name="Path 231" d="M757.985,1019.142a61.6,61.6,0,0,1,61.307,75.669c-42.39-.112-83.051-.468-120.086-1.118a61.541,61.541,0,0,1,58.779-74.551Z" transform="translate(-499.18 -684.428)"/>
        <circle id="Ellipse_23" data-name="Ellipse 23" cx="26.29" cy="26.29" r="26.29" transform="matrix(0.707, -0.707, 0.707, 0.707, 223.263, 407.939)" fill="#353a3d"/>
        <path id="Path_232" data-name="Path 232" d="M796.238,1182.5l25.891,18.386c-.075,0-.148.009-.223.011a26.4,26.4,0,0,1-5.371-.428l-18.057-12.823A26.141,26.141,0,0,1,796.238,1182.5Zm6.633-26.61a26.371,26.371,0,0,1,4.292-3.435l39.729,28.261a26.094,26.094,0,0,1-1.98,5.487Zm13.317-7.059,31.159,22.126a26.554,26.554,0,0,1,.253,3.065c.005.224,0,.446,0,.669l-35.026-24.872A26.1,26.1,0,0,1,816.188,1148.83Zm-20.162,18.578a26.094,26.094,0,0,1,1.762-4.525l42.353,30.075a26.382,26.382,0,0,1-3.692,3.155Zm-.929,5.3a26.2,26.2,0,0,1,.439-3.243l39.136,27.79a26.2,26.2,0,0,1-2.915,1.485l-36.66-26.032Z" transform="translate(-560.866 -766.669)" fill="#3d4244"/>
        <circle id="Ellipse_24" data-name="Ellipse 24" cx="13.145" cy="13.145" r="13.145" transform="translate(245.556 396.823) rotate(-8.338)" fill="#8fa5b6"/>
        <circle id="Ellipse_25" data-name="Ellipse 25" cx="5.988" cy="5.988" r="5.988" transform="matrix(0.054, -0.999, 0.999, 0.054, 254.141, 413.631)" fill="#b9cbda"/>
        <path id="Path_233" data-name="Path 233" d="M913.944,1172.586c-8.03,2.524-9.25,4.837-9.573,6.319-.446,2.049,2.5,6.238,2.323,9.4s-1.05,4.288-1.936,7.838c-.816,3.273,6.9,9.305,8.529,9.472s4.241-4.8,4.314-10.588S917.429,1171.49,913.944,1172.586Z" transform="translate(-630.124 -781.701)" fill="#8fa5b6"/>
        <path id="Path_234" data-name="Path 234" d="M913.161,1189.057c4.45-3.991,7.605-3.134,8.9-3.163s3.392,4.959,3.768,11.512-1.431,11.019-2.856,12.119-8.622-2.74-9.591-5.133c-.668-1.649,3.053-2.438,3.449-6.784C917.379,1191.607,911.645,1190.417,913.161,1189.057Z" transform="translate(-635.564 -790.133)" fill="#b9cbda"/>
        <path id="Path_235" data-name="Path 235" d="M1354.946,896.583c23.4-.526,27.159-2.923,28.843-5.128,3.261-4.271,4.477-11.619,5.455-17.523a40.3,40.3,0,0,1,1.223-5.93c.509-.888,2.088-3.642,5.4-76.969,11.271-.336,49.445-1.45,87.549-2.306,26.514-.6,47.8-.951,63.274-1.058,2.989-.067,4.348-2.066,4.39-3.9.052-2.232-.823-4.3-12.626-10.671a291.568,291.568,0,0,0-27.978-12.922c-16.415-6.637-48.433-18.083-78.445-20.173-26.3-1.831-46.788-2.5-64.491-2.1-23.408.526-42.555,2.951-60.254,7.633-27.3,7.221-65.054,26.131-83.144,37.253-16.626,10.222-17.3,13.34-16.49,16.1a4.115,4.115,0,0,0,4.128,2.914,4.869,4.869,0,0,0,1.336-.22c6.09-1.676,98.715-23.988,119.72-28.246-2.292,18.561-11.491,89.531-15.3,118.805l-.5,3.878,3.907.167C1321.12,896.2,1338.857,896.944,1354.946,896.583Z" transform="translate(-822.318 -506.046)" fill="#3b8680"/>
        <path id="Path_236" data-name="Path 236" d="M1552.964,790.3c-52.524.359-154.231,3.465-154.231,3.465s-3.379,75.694-5.1,78.7-2.052,17.333-6.4,23.029-59.843,3.331-59.843,3.331,15.873-122.075,15.842-123.5-123.466,28.613-124.88,29.052-3.9-1.337,13.965-12.318,55.283-29.726,82.183-36.841c31.933-8.446,68.357-9.267,123.58-5.422S1562.154,790.235,1552.964,790.3Z" transform="translate(-828.614 -512.259)"/>
        <path id="Path_237" data-name="Path 237" d="M1465.221,872c.974,2.1-1.481,5.1-2.007,5.742-2.5,3.048-5.986,4.292-10.867,5.33-8.484,1.806-19,2.529-19.2,1.245-.153-1,6.279-2.694,11.769-3.673,6.916-1.232,10.791-.663,15.832-3.967.8-.525,2.484-1.931,2.22-3.051s-1.784-1.488-2.834-1.615c-5.719-.69-10.684,1.482-12.964,2.529-8.709,4-13.779,7.9-13.969,7.639s4.04-4.214,10.1-7.654c7.075-4.014,11.653-4.468,13.224-4.57C1458.645,869.823,1464.048,869.47,1465.221,872Z" transform="translate(-965.432 -589.785)" fill="#3b8680"/>
        <path id="Path_238" data-name="Path 238" d="M1199.371,835.311c1.507,7.378-.249,22.058-1.582,24.679s-9.292-2.695-14.2-7.084-6.615-9.157-3.57-12.888,18.971-6.566,19.35-4.707Z" transform="translate(-803.971 -567.505)" fill="#7cccc4"/>
        <path id="Path_239" data-name="Path 239" d="M1209.288,840.833c1.612,5.881.965,12.377-.282,14.617s-9.6-.686-11.264-2.716-.818-8.686.907-10.022S1208.955,839.62,1209.288,840.833Z" transform="translate(-815.601 -571.12)"/>
        <path id="Path_240" data-name="Path 240" d="M1180.024,840.019c3.044-3.731,18.97-6.566,19.349-4.707.066.323.124.667.178,1.017a31.056,31.056,0,0,0-6.21-.094c-3.956.316-7.725,1.268-10.186,3.942a8.663,8.663,0,0,0-2.16,4.383,12.986,12.986,0,0,0,.059,5.681c-2.853-3.589-3.467-7.238-1.031-10.222Z" transform="translate(-803.975 -567.506)" fill="#d8dee6"/>
        <path id="Path_241" data-name="Path 241" d="M692.33,954.389a.772.772,0,0,1-.273-1.494c13.033-4.934,106.867-24.01,172.486-28.74a.772.772,0,0,1,.111,1.54c-65.5,4.721-159.069,23.729-172.05,28.644A.794.794,0,0,1,692.33,954.389Zm367.88,56.814a.772.772,0,1,1-.007-1.544c.179,0,18.682-.223,90.046-4.389a.772.772,0,1,1,.09,1.541c-71.426,4.17-89.942,4.39-90.121,4.392ZM1317.339,975a.772.772,0,0,1-.106-1.536,375.846,375.846,0,0,1,42.3-2.994.785.785,0,0,1,.78.764.772.772,0,0,1-.764.78,374.271,374.271,0,0,0-42.1,2.979.72.72,0,0,1-.107.008Z" transform="translate(-495.216 -624.209)" fill="#3b8680"/>
        <path id="Path_242" data-name="Path 242" d="M1932.669,1085.759c-.705-15.643.83-25.478,4.2-35.07,7.347-20.936,22.137-30.176,26.933-32.815a74.13,74.13,0,0,1,44.092-7.094c31.607,5.062,46.853,32.612,48.408,35.535a74,74,0,0,1,8.308,35.591c-35.41,1.424-80.861,2.746-131.936,3.854Z" transform="translate(-1282.057 -678.602)"/>
        <ellipse id="Ellipse_26" data-name="Ellipse 26" cx="45.682" cy="47.394" rx="45.682" ry="47.394" transform="translate(671.597 350.399) rotate(-1.289)" fill="#26292b"/>
        <path id="Path_243" data-name="Path 243" d="M1994.36,1101.492l29.8,2.922-23.969-17.948,13.719-14.35,19.006,23.139-4.258-29.64,19.847-.446-2.922,29.8L2063.533,1071l14.349,13.719-23.139,19.006,29.64-4.258.446,19.848-29.8-2.922L2079,1134.344l-13.719,14.35-19.006-23.139,4.258,29.64-19.848.446,2.922-29.8-17.948,23.97-14.349-13.719,23.139-19.007-29.64,4.258-.447-19.848Zm30.506-7.418c-6.17-5.9-11.675-10.156-12.3-9.507s3.879,5.957,10.049,11.856a81.849,81.849,0,0,0,10.573,8.876l1.185.116-.169-1.177a81.807,81.807,0,0,0-9.342-10.164Zm15.861-5.632c-.192-8.535-1.075-15.437-1.972-15.417s-1.469,6.955-1.278,15.49a81.767,81.767,0,0,0,1.2,13.752l.755.92.713-.952A81.853,81.853,0,0,0,2040.727,1088.443Zm14.824,7.624c5.9-6.171,10.156-11.676,9.507-12.3s-5.957,3.879-11.856,10.05a90.547,90.547,0,0,0-8.482,9.971l-.136,1.395,1.388-.2A90.513,90.513,0,0,0,2055.551,1096.067Zm5.465,15.483c8.535-.192,15.437-1.075,15.417-1.972s-6.955-1.469-15.49-1.277a90.518,90.518,0,0,0-13.048,1.053l-1.083.89,1.123.841A90.643,90.643,0,0,0,2061.016,1111.549Zm-7.083,14.812c6.17,5.9,11.676,10.156,12.3,9.507s-3.88-5.957-10.05-11.857a90.583,90.583,0,0,0-9.971-8.482l-1.4-.137.2,1.388a90.509,90.509,0,0,0,8.92,9.58Zm-15.482,5.465c.192,8.535,1.075,15.437,1.972,15.417s1.469-6.955,1.278-15.49a90.487,90.487,0,0,0-1.054-13.049l-.889-1.083-.84,1.122A90.534,90.534,0,0,0,2038.451,1131.826Zm-15.186-6.692c-5.9,6.171-10.155,11.675-9.507,12.3s5.957-3.879,11.857-10.049a81.829,81.829,0,0,0,8.875-10.573l.116-1.185-1.177.169a81.792,81.792,0,0,0-10.164,9.342Zm-5.559-12.611a81.858,81.858,0,0,0,13.752-1.2l.92-.756-.952-.713a81.773,81.773,0,0,0-13.793-.581c-8.535.192-15.437,1.075-15.417,1.972S2009.171,1112.714,2017.706,1112.522Z" transform="translate(-1321.28 -713.623)" fill="#b9cbda"/>
        <path id="Path_244" data-name="Path 244" d="M2040.18,1102.692a35.455,35.455,0,0,0,.418-3.785l4.808,4.425q-.334.452-.651.916l-.136,1.395,1.388-.2q.465-.349.916-.716l4.943,4.549c-1.561.156-2.9.337-3.935.533l-.8.659-7.56-6.958Zm-1.467.033-28.508-26.238,2.823-2.954,6.994,6.436,12.931,15.743-.636-4.427,5.564,5.121a48.28,48.28,0,0,0,.831,6.318Zm-11.534,23.485c1.487-1.6,2.834-3.131,3.983-4.505l7.287,6.707q-.018,4.182.206,8.361l-5.544-5.1.527-5.376-2.6,3.47Zm5.343,11.461,6.781,6.242c.339,2.36.744,3.795,1.152,3.786.291-.007.547-.75.755-2.031l9.126,8.4.227,1.583-4.432.1-14.108-12.984ZM2012.827,1113q4.354.053,8.7-.161l7.6,7c-1.323,1.213-2.791,2.632-4.326,4.19l-3.885-3.575,3.553-2.918-5.816.836-5.835-5.37Zm63.639-2.971c-.011-.5-2.16-.9-5.525-1.118l-6.629-6.1,10.877-1.562,9.453,8.7.22,9.822-2.377-.233-9.182-8.45C2075.287,1110.771,2076.475,1110.4,2076.466,1110.032Zm-29.966-23.61-6.172-5.68c-.385-4.366-.96-7.274-1.542-7.261-.464.01-.84,1.881-1.07,4.858l-8.37-7.7-.656-4.565,8.075-.181,10.774,9.916Zm-34.979,17.206,6.62,6.093-.473.009c-2.913.065-5.625.213-7.948.412l-8.136-7.488Zm42.562-10.228-4.112-3.784,5.131-6.852,5.131,4.722C2058.452,1089.055,2056.326,1091.092,2054.082,1093.4Zm-59.672,9.192,9.15,8.421c-.84.22-1.314.452-1.309.686.008.359,1.138.665,3.023.892l7.241,6.664-5.218.749-12.76-11.743Zm29.435,27.094,4.294,3.952-2.462,3.287-4.757-4.378q1.485-1.406,2.924-2.861Zm-2.357-2.166q-1.386,1.5-2.722,3.047l-4.786-4.4,3.187-2.619,4.321,3.976ZM2060.6,1099.4l-4.137-3.807c2.2-2.344,4.14-4.558,5.621-6.4l5.161,4.75Zm15.574,37.8-27.835-25.618c1.622.21,3.859.357,6.49.42l5.866,5.4-5.632-.552,23.588,17.662-2.476,2.69Zm-34.47,2.375c.076-2.192.09-4.7.03-7.369-.006-.27-.016-.53-.023-.8l6.19,5.7,1.353,9.416Z" transform="translate(-1321.312 -714.08)" fill="#fff" opacity="0.58"/>
        <path id="Path_245" data-name="Path 245" d="M2105.478,1180.96a4.578,4.578,0,1,1,4.679,4.474A4.578,4.578,0,0,1,2105.478,1180.96Z" transform="translate(-1391.736 -784.074)" fill="#353a3d"/>
        <path id="Path_246" data-name="Path 246" d="M2017.9,1032.974a57.021,57.021,0,1,1-55.726,58.287A57.021,57.021,0,0,1,2017.9,1032.974Zm2.258,100.5a43.506,43.506,0,1,0-44.473-42.518A43.506,43.506,0,0,0,2020.154,1133.476Z" transform="translate(-1300.86 -693.2)" fill="#26292b"/>
        <path id="Path_247" data-name="Path 247" d="M1993.16,1110.656a45.682,45.682,0,1,1,46.7,44.644,45.682,45.682,0,0,1-46.7-44.644Zm46.623,41.382a42.419,42.419,0,1,0-43.361-41.455A42.419,42.419,0,0,0,2039.783,1152.038Z" transform="translate(-1320.512 -712.848)" fill="#353a3d"/>
        <ellipse id="Ellipse_27" data-name="Ellipse 27" cx="45.682" cy="47.394" rx="45.682" ry="47.394" transform="translate(213.727 350.417) rotate(-1.289)" fill="#26292b"/>
        <path id="Path_248" data-name="Path 248" d="M743.118,1101.492l29.8,2.922-23.969-17.948,13.719-14.35,19.006,23.139-4.258-29.64,19.847-.446-2.922,29.8L812.291,1071l14.349,13.719L803.5,1103.728l29.64-4.258.446,19.848-29.8-2.922,23.969,17.948-13.719,14.35-19.006-23.139,4.258,29.64-19.847.446,2.922-29.8-17.948,23.97-14.349-13.719,23.139-19.007-29.64,4.258-.446-19.848Zm30.506-7.418c-6.17-5.9-11.675-10.156-12.3-9.507s3.879,5.957,10.049,11.856a81.885,81.885,0,0,0,10.573,8.876l1.184.116-.169-1.177A81.781,81.781,0,0,0,773.624,1094.075Zm15.861-5.632c-.192-8.535-1.075-15.437-1.972-15.417s-1.469,6.955-1.277,15.49a81.78,81.78,0,0,0,1.2,13.752l.755.92.713-.952A81.813,81.813,0,0,0,789.485,1088.443Zm14.825,7.624c5.9-6.171,10.156-11.676,9.507-12.3s-5.957,3.879-11.856,10.05a90.519,90.519,0,0,0-8.482,9.971l-.136,1.395,1.388-.2A90.537,90.537,0,0,0,804.309,1096.067Zm5.465,15.483c8.535-.192,15.437-1.075,15.417-1.972s-6.955-1.469-15.49-1.277a90.524,90.524,0,0,0-13.048,1.053l-1.083.89,1.123.841A90.644,90.644,0,0,0,809.775,1111.549Zm-7.084,14.812c6.17,5.9,11.676,10.156,12.3,9.507s-3.88-5.957-10.05-11.857a90.606,90.606,0,0,0-9.971-8.482l-1.4-.137.2,1.388A90.465,90.465,0,0,0,802.691,1126.361Zm-15.482,5.465c.192,8.535,1.075,15.437,1.972,15.417s1.469-6.955,1.277-15.49A90.473,90.473,0,0,0,789.4,1118.7l-.89-1.083-.84,1.122A90.556,90.556,0,0,0,787.209,1131.826Zm-15.185-6.692c-5.9,6.171-10.155,11.675-9.507,12.3s5.957-3.879,11.857-10.049a81.853,81.853,0,0,0,8.876-10.573l.116-1.185-1.177.169A81.771,81.771,0,0,0,772.023,1125.134Zm-5.559-12.611a81.861,81.861,0,0,0,13.752-1.2l.92-.756-.952-.713a81.772,81.772,0,0,0-13.793-.581c-8.535.192-15.437,1.075-15.417,1.972S757.929,1112.714,766.464,1112.522Z" transform="translate(-527.907 -713.623)" fill="#b9cbda"/>
        <path id="Path_249" data-name="Path 249" d="M788.929,1102.692a35.4,35.4,0,0,0,.418-3.785l4.808,4.425q-.334.452-.651.916l-.136,1.395,1.388-.2q.465-.35.916-.717l4.943,4.549c-1.561.156-2.9.337-3.935.533l-.8.659-7.56-6.958Zm-1.468.033-28.508-26.238,2.824-2.954,6.994,6.436,12.931,15.743-.636-4.427,5.564,5.121a48.288,48.288,0,0,0,.831,6.318h0Zm-11.533,23.485c1.487-1.6,2.834-3.131,3.983-4.505l7.287,6.707q-.02,4.182.206,8.361l-5.544-5.1.527-5.376-2.6,3.47Zm5.344,11.461,6.781,6.242c.339,2.36.744,3.795,1.152,3.786.291-.007.547-.75.755-2.031l9.125,8.4.227,1.583-4.432.1-14.108-12.984ZM761.579,1113q4.353.053,8.7-.161l7.6,7c-1.323,1.213-2.791,2.632-4.326,4.19l-3.884-3.575,3.553-2.918-5.816.836Zm63.638-2.971c-.011-.5-2.16-.9-5.525-1.118l-6.63-6.1,10.878-1.562,9.453,8.7.221,9.822-2.377-.233-9.182-8.45C824.038,1110.771,825.225,1110.4,825.217,1110.032Zm-29.965-23.61-6.172-5.68c-.385-4.366-.96-7.274-1.542-7.261-.464.01-.84,1.881-1.07,4.858l-8.37-7.7-.656-4.565,8.075-.181,10.774,9.916-1.041,10.616Zm-34.982,17.206,6.62,6.093-.473.009c-2.913.065-5.625.213-7.948.412l-8.136-7.488Zm42.563-10.228-4.112-3.784,5.131-6.852,5.131,4.722C807.2,1089.055,805.077,1091.092,802.833,1093.4Zm-59.675,9.192,9.15,8.421c-.84.22-1.314.452-1.308.686.008.359,1.138.665,3.023.892l7.241,6.664-5.218.749-12.76-11.743Zm29.437,27.094,4.294,3.952-2.462,3.287-4.757-4.378Q771.157,1131.141,772.6,1129.687Zm-2.355-2.166q-1.386,1.5-2.722,3.047l-4.786-4.4,3.188-2.619Zm39.111-28.122-4.137-3.807c2.2-2.344,4.139-4.558,5.621-6.4l5.161,4.75-6.645,5.458Zm15.573,37.8-27.836-25.618c1.622.21,3.859.357,6.49.42l5.866,5.4-5.632-.552,23.588,17.662-2.475,2.69Zm-34.471,2.375c.076-2.192.09-4.7.03-7.369-.006-.27-.016-.53-.023-.8l6.19,5.7,1.352,9.416Z" transform="translate(-527.933 -714.08)" fill="#fff" opacity="0.58"/>
        <path id="Path_250" data-name="Path 250" d="M854.226,1180.96a4.577,4.577,0,1,1,4.679,4.474A4.577,4.577,0,0,1,854.226,1180.96Z" transform="translate(-598.356 -784.074)" fill="#353a3d"/>
        <path id="Path_251" data-name="Path 251" d="M766.649,1032.974a57.021,57.021,0,1,1-55.726,58.287A57.021,57.021,0,0,1,766.649,1032.974Zm2.258,100.5a43.506,43.506,0,1,0-44.473-42.518A43.506,43.506,0,0,0,768.907,1133.476Z" transform="translate(-507.484 -693.2)" fill="#26292b"/>
        <path id="Path_252" data-name="Path 252" d="M741.908,1110.656a45.682,45.682,0,1,1,46.7,44.644A45.682,45.682,0,0,1,741.908,1110.656Zm46.623,41.382a42.419,42.419,0,1,0-43.361-41.455A42.419,42.419,0,0,0,788.531,1152.038Z" transform="translate(-527.132 -712.848)" fill="#353a3d"/>
        <g id="Group_40" data-name="Group 40" transform="translate(388.753 235.336)" clip-path="url(#clip-path)">
          <path id="Path_253" data-name="Path 253" d="M1544.72,834.093c-38.429-1.215-223.063,4.284-224.69,4.251s35.8-20.035,92.7-26.83,126.31,11.683,130.883,16.962S1546.341,834.145,1544.72,834.093Z" transform="translate(-1282.431 -787.184)" fill="#fff"/>
        </g>
        <path id="Path_255" data-name="Path 255" d="M598.425,828.459c11.243.582,18.192-12.61,17.135-25.318a2.492,2.492,0,0,0-.22-.789,42.211,42.211,0,0,0-10.3,5.874C601.521,811.169,599.3,818.939,598.425,828.459Zm308.7-99.559a49.9,49.9,0,0,0-1.393,9.648,5.3,5.3,0,0,1-.284,1.864c-1.043,2.49-5.072,2.193-7.221,1.9-2.092-.288-2.275-1.132-3.614-2.351-1.308-1.191-3.574-.522-5.2-.7-2.493-.279-5.947-1.683-8.307-2.534-5.351-1.93-9.994-.743-15.144-3.159-1.514-.71-3.162-1.185-4.707-1.826-2.948-1.224-6.332-.8-9.393-1.7-.432-4.331.282-8.68.685-13.007q1.242-13.35,2.485-26.7c-.023.251.512.8.651.988q.484.628,1,1.235c.683.807,1.4,1.59,2.122,2.361,1.447,1.546,2.943,3.053,4.325,4.66l.206.243q.341.4.662.826c.168.221.334.442.5.659a14.6,14.6,0,0,0,1.378,1.608,33.282,33.282,0,0,0,5.346,4.09,89.917,89.917,0,0,0,9.288,5.111c2.594,1.262,5.23,2.443,7.884,3.577.85.363,1.708.712,2.547,1.1,2.358,1.08,9.055,3.707,9.055,3.707s.875-1.048,3.176-.609a9.3,9.3,0,0,1,4.328,2.366c1.784,1.655.089,4.712-.372,6.659Z" transform="translate(-436.162 -475.946)" fill="#eb4450"/>
        <path id="Path_256" data-name="Path 256" d="M1353.07,737.334c-2.171,2.158-4.3,4.908-4.785,8.015a21.55,21.55,0,0,1-.3,2.869c-.269.906-.864,1.653-1.189,2.54a6.946,6.946,0,0,0-.161,4.12c.164.681,1.362.417,1.214-.277a6.416,6.416,0,0,1,.782-4.685c.767-1.4.674-2.554.868-4.1.39-3.11,2.54-5.433,4.43-7.764C1354.393,737.481,1353.574,736.832,1353.07,737.334Zm-35.009-18.167a71.871,71.871,0,0,1-3.751,12.083c-.138.332-.682.175-.541-.164a75.311,75.311,0,0,0,3.791-12.577C1317.728,718.728,1317.894,718.949,1318.062,719.167Z" transform="translate(-889.725 -493.816)" fill="#be2328"/>
        <path id="Path_257" data-name="Path 257" d="M1202.044,717.654c-.644,2.9.643,1.287,1.609,4.5a10.03,10.03,0,0,1-.515,6.393l-29.084.685s-6.756-14.156-6.756-14.478-.322-55.659,3.925-58.979a10.466,10.466,0,0,1,2.024-1.155q.413-.187.833-.357c6.2-2.539,18.171-4.765,20.005-5.1.154-.026.238-.042.238-.042l.643-.643a.745.745,0,0,1,.3-.142,26.709,26.709,0,0,1,4.852-.18l13.171,6.949a20.455,20.455,0,0,1,3.076,3.828c.119.232-.039.8,0,.965.322,1.287,6.273,12.065,6.273,12.065s-.643,5.469-3.861,16.73S1202.687,714.759,1202.044,717.654Z" transform="translate(-796.863 -449.19)" fill="#eb4450"/>
        <path id="Path_258" data-name="Path 258" d="M1260.9,661.63a.541.541,0,0,0-1.081,0,45.529,45.529,0,0,1-1.1,9.215,8.968,8.968,0,0,0-2.891-3.131c-.669-.446-1.249.6-.622,1.063a8.4,8.4,0,0,1,3.074,4.086.624.624,0,0,0,1.194,0A34.745,34.745,0,0,0,1260.9,661.63Zm-11.823,6.117a19.86,19.86,0,0,0-8.23,3.819.645.645,0,0,1-1.062-.28,59.093,59.093,0,0,1-1.725-21.749c.154-.026.238-.042.238-.042l.643-.643a.744.744,0,0,1,.3-.142,68.268,68.268,0,0,0,1.544,21.324,19.835,19.835,0,0,1,7.956-3.507C1249.536,666.377,1249.88,667.57,1249.079,667.747Zm3.11,3.13a45.208,45.208,0,0,0-3.49,11.22c-.524,3.66-.62,7.448-1.942,10.943-1.253,3.31-3.8,5.778-5.822,8.6a15.229,15.229,0,0,0-2.215,4.194,22.185,22.185,0,0,0-.814,5.363,31.147,31.147,0,0,1-.943,6.515,5.164,5.164,0,0,0-.186,2.8c.273,1,1,1.979.632,3.041-.134.389.477.574.611.187a2.927,2.927,0,0,0-.133-2.047,5.27,5.27,0,0,1-.526-2.949c.168-.9.5-1.769.684-2.672a24.515,24.515,0,0,0,.365-2.82,48.251,48.251,0,0,1,.562-5.839,13.422,13.422,0,0,1,2.077-4.82c1.882-2.81,4.414-5.172,5.855-8.272,1.491-3.208,1.777-6.782,2.179-10.248a38.489,38.489,0,0,1,1.209-6.446,70.255,70.255,0,0,1,2.438-6.592C1252.868,670.7,1252.33,670.546,1252.189,670.877Z" transform="translate(-840.842 -449.559)" fill="#be2328"/>
        <path id="Path_259" data-name="Path 259" d="M1161.931,1340.57c0-2.642-34.983-2.218-67.519-2.243s-49.521-.21-49.126,2.152c.249,1.49,17.468,1.854,50,1.879S1161.928,1342.252,1161.931,1340.57Z" transform="translate(-719.498 -886.815)" fill="#827893"/>
        <path id="Path_260" data-name="Path 260" d="M1247.083,1268.342c2.5-.579,2.937-1.046,5.453-1.57,2.95-.614,5.86-1.668,8.838-2.209a53.853,53.853,0,0,0-.219,7.495c.316,3.018,2.692,5.724,4.774,7.641a30.3,30.3,0,0,0,8.738,5.537c4.84,2,8.827,2.855,9.964,5.419,1.089,2.456.282,2.848-.572,3.132s-32.166.833-35.3-.879c-2.548-1.392-3.109-4.083-2.709-10.007.176-2.6,1.193-3.51,1.03-14.56Z" transform="translate(-846.729 -840.052)" fill="#e9946b"/>
        <path id="Path_261" data-name="Path 261" d="M1241.971,1313.891c.363-2.228.2-4.932,1.523-7.454,3.248,1.492,4.855,2.574,8.2.85,1.912-.984,2.834-2.772,4.237-4.3a4.29,4.29,0,0,1,3.622-1.307,5.973,5.973,0,0,1,3.781,1.48,34.518,34.518,0,0,0,8.77,5.607c4.84,2,8.827,2.855,9.964,5.419a4.388,4.388,0,0,1,.517,2.048c-.066.7-.568.911-1.089,1.084-.855.284-35.159,1.681-38.29-.03C1242.183,1316.731,1241.717,1315.469,1241.971,1313.891Z" transform="translate(-844.171 -863.587)" fill="#6c4e4e"/>
        <path id="Path_262" data-name="Path 262" d="M1086.761,1296.962c.012.036.024.072.039.107a2.036,2.036,0,0,0,.209.407,1.449,1.449,0,0,0,.1.144c.64.8,22.058.5,22.912-.644.072-.1-2.039-6.825-2.089-6.885-2.1-2.449-2.469-7.118-2.386-10.177a43.823,43.823,0,0,1,1.153-8.636q-6.751-.535-13.5-1.067c.4.03-.1,6.919-.236,7.541a35.08,35.08,0,0,1-2.633,7.575c-.591,1.224-1.27,2.276-1.864,3.374a12.278,12.278,0,0,0-1.235,3.084,24.65,24.65,0,0,0-.6,2.924,5.243,5.243,0,0,0,.13,2.25Z" transform="translate(-745.68 -843.634)" fill="#e9946b"/>
        <path id="Path_263" data-name="Path 263" d="M1086.806,1319.4c.012.036.024.072.039.108a2.037,2.037,0,0,0,.209.407,1.476,1.476,0,0,0,.1.144c.514.644,3.071.455,3.775.5,2.59.156,4.59.214,7.184.238,2.612.024,5.228.013,7.838-.113.936-.045,1.877-.1,2.808-.219,1.246-.165,2.1-.637,2.079-2.119a5.686,5.686,0,0,0-.587-2.162,17.307,17.307,0,0,0-2.123-3.711c-.345-.294-3.791-6.066-7.743-6.685a11.5,11.5,0,0,0-11.878,5.356,12.278,12.278,0,0,0-1.235,3.084,24.672,24.672,0,0,0-.6,2.923,6.442,6.442,0,0,0,.13,2.25Z" transform="translate(-745.725 -866.075)" fill="#6c4e4e"/>
        <path id="Path_264" data-name="Path 264" d="M1162.232,1013.077s-22.594,7.607-23.789,5.213c-1.06-2.121-2.362-65.126-9.271-109.191-1.992,13.222-3.692,27-6.324,44.693-3.842,25.8-8.019,51.544-9.353,62.823-.236,2-1.974,2.151-3.975,1.934-6.884-.752-20.077-3.255-20.152-5.083-.073-1.754,6.193-91.15,9.251-134.594.042-.6.084-1.2.124-1.782l.611-8.661q.117-1.675.221-3.156c.426-6.055.68-9.616.68-9.616l53.108-.93s7.012,51.658,8.489,75.9S1162.232,1013.077,1162.232,1013.077Z" transform="translate(-747.453 -580.187)" fill="#eb4450"/>
        <path id="Path_265" data-name="Path 265" d="M1197.252,949.958a.6.6,0,0,1-.593-.683l5.115-35.907a.6.6,0,0,1,1.185.169l-5.115,35.907A.6.6,0,0,1,1197.252,949.958Z" transform="translate(-815.48 -617.044)" fill="#be2328"/>
        <path id="Path_266" data-name="Path 266" d="M1161.009,921.34c.926-1.134,2.12-2.051,3.076-3.175a25.7,25.7,0,0,0,2.722-3.924.505.505,0,0,1,.872.51c-1.433,2.583-3.5,5.8-6.118,7.3-.474.272-.867-.331-.552-.716Zm-27.295,1.617c3.552-2.2,6.118-5.361,8.635-8.637.417-.543,1.3.054.883.606-2.568,3.387-5.252,6.917-9.026,9.034C1133.57,924.318,1133.113,923.33,1133.714,922.957Zm34.873,52.6q-1.929-15.556-4.7-30.991a.28.28,0,0,0-.31-.227h-.005a.278.278,0,0,0-.239.325c.125.7.252,1.393.374,2.09q3.467,19.887,5.569,39.973c.039.367.62.385.582.013Q1169.28,981.143,1168.587,975.558Zm1.171,16.05c-.023-.35.521-.348.545,0q1.42,21.125,1.467,42.307.012,6.017-.1,12.033a.275.275,0,0,1-.549,0c.183-14.114.007-28.227-.67-42.327Q1170.156,997.611,1169.758,991.608Z" transform="translate(-775.394 -617.768)" fill="#be2328"/>
        <path id="Path_267" data-name="Path 267" d="M1119.665,1320.655a28.92,28.92,0,0,1,6.972,1.205c1.3.451,3.051.943,3.668,2.3.316.7-.716,1.3-1.034.6-.568-1.25-2.776-1.738-3.984-2.073a31.152,31.152,0,0,0-5.623-.84C1118.9,1321.785,1118.9,1320.587,1119.665,1320.655Zm66.848,1.087c3.826-.1,7.649-1.182,11.422-.073a.6.6,0,0,1-.319,1.154c-3.65-1.073-7.4.024-11.1.116a.6.6,0,0,1,0-1.2Z" transform="translate(-766.3 -875.617)" fill="#4a3333"/>
        <path id="Path_268" data-name="Path 268" d="M1145.121,899.834l1.607,2.575-31.738-9.2.611-8.66q.117-1.675.221-3.156l.361-1.245Z" transform="translate(-763.7 -596.304)" fill="#1a1a1a"/>
        <path id="Path_269" data-name="Path 269" d="M1272.427,628.141c-.32.892-1.474,4.144-2.135,5.753-.135.331-2.05,5.152-4.624,10.3,0,0-7.793-15.865-8.686-21.556,7.078-3.539,7.431-11.849,7.431-11.849l15.967-2.915a108.252,108.252,0,0,0-7.157,15.455c-.157.464-.309.926-.447,1.381A11.117,11.117,0,0,0,1272.427,628.141Z" transform="translate(-853.731 -423.666)" fill="#e9946b"/>
        <path id="Path_270" data-name="Path 270" d="M1304.14,573.933a3.951,3.951,0,0,0,.714-1.569,20.147,20.147,0,0,1,.28-2.376c.43-1.318,1.933-2.374,1.651-3.731a2.764,2.764,0,0,0-1.669-1.712c-.969-.461-2.371-.865-3.08-1.692-.417-.486-.335-1.187-.49-1.8a2.955,2.955,0,0,0-2.037-1.959,4.937,4.937,0,0,0-2.967.117c-.655.216-1.47.5-1.965.036a1.78,1.78,0,0,1-.367-.646,4.242,4.242,0,0,0-1.848-2.146,2.91,2.91,0,0,0-2.825,0,12.549,12.549,0,0,1-3.37,1.29,1.019,1.019,0,0,1-.538.039,1.718,1.718,0,0,1-.492-.325,2.122,2.122,0,0,0-2.527.465,23.972,23.972,0,0,1-1.858,1.984c-.655.482-1.491.706-2.14,1.2a5.534,5.534,0,0,0-1.712,3.266,63.681,63.681,0,0,0-1.229,6.328c-.169,1.19-.669,3.255.012,4.362.647,1.051,2.079,1.52,3.183,1.944a14.078,14.078,0,0,0,2.316.69,21.955,21.955,0,0,0,4.774.234c2.92-.07,5.845-.141,8.75-.434a42.878,42.878,0,0,0,4.434-.654,8.668,8.668,0,0,0,5-2.907Z" transform="translate(-865.371 -390.832)" fill="#7f2c30"/>
        <path id="Path_271" data-name="Path 271" d="M1297.771,599.306a6.363,6.363,0,0,1-.366,1.886q-.275,1.134-.578,2.26c-.532,1.984-1.125,3.954-1.805,5.9a40.651,40.651,0,0,1-2.758,6.382,10.173,10.173,0,0,1-3.482,4.1c-5.412,3.065-13.3-.27-15.553-5.089-1.91-4.089-1.576-11.065-1.576-11.065a4.19,4.19,0,0,1-2.229-4.771c.405-1.551,1.166-3.557,2.84-4.226a1.984,1.984,0,0,1,1.849.124c.729.527.873,2.173,1.086,3,.094.363.088,1.955.725,1.792a.9.9,0,0,0,.488-.423c.857-1.3,1-2.968,1.98-4.188a1.723,1.723,0,0,1,.569-.492c.732-.358,1.661-.014,2.441-.159,1.417-.264,2.833-.527,3.837.521.818.855,1.739,2.2,3,2.494,1.236.283,2.433-.92,3.683-.62a5.278,5.278,0,0,1,.987.465,2.725,2.725,0,0,0,2.1.109c.466-.191.815-.674,1.385-.522.25.067.355.342.436.576a6.685,6.685,0,0,0,.795,1.576.725.725,0,0,1,.127.246c.008.041.015.084.019.127Z" transform="translate(-861.526 -414.93)" fill="#e9946b"/>
        <path id="Path_272" data-name="Path 272" d="M1304.334,616.807a.826.826,0,0,0-.62-.363q-.042-.009-.084-.014a.173.173,0,0,0-.031-.008c-.01,0-.019,0-.029,0-.874-.064-1.31,1.011-1.008,1.7a.678.678,0,0,0,.209.417.845.845,0,0,0,.455.193.194.194,0,0,0,.042.025.76.76,0,0,0,.918-.33,1.225,1.225,0,0,0,.148-1.624Zm11.655,3.333a.987.987,0,0,0-1.328-.462.739.739,0,0,0-.124.078.626.626,0,0,0-.263.385c0,.019-.009.037-.011.056s0,.011,0,.017a1.762,1.762,0,0,0,.069.861.9.9,0,0,0,1.37.292A1.011,1.011,0,0,0,1315.989,620.14Z" transform="translate(-882.572 -429.085)" fill="#1a1a1a"/>
        <path id="Path_273" data-name="Path 273" d="M1319.922,637.928a.549.549,0,0,0-.523-.561l-.889-.046a.528.528,0,1,0-.064,1.053l.889.046A.551.551,0,0,0,1319.922,637.928Z" transform="translate(-892.372 -442.337)" fill="#cd5d4c" opacity="0.6"/>
        <path id="Path_274" data-name="Path 274" d="M1299.9,608.728c.044-.023.088-.047.133-.07l.008,0h0c.169-.085.341-.166.518-.236s.356-.139.527-.208c.324-.113.709-.242,1.158-.384.737-.234,1.511-.315,2.26-.51.69-.18,1.036.826.346,1.005-.748.2-1.522.279-2.26.51s-1.463.563-2.2.828A.531.531,0,0,1,1299.9,608.728Zm15.826,4a3.192,3.192,0,0,0-1.175-1.425c-.546-.436-1.321.317-.77.758a2.318,2.318,0,0,1,.873.94C1314.885,613.65,1315.958,613.378,1315.729,612.732Zm-10.963,6.193a2.852,2.852,0,0,0-1.169-.066,4.308,4.308,0,0,0-3.283,1.746.82.82,0,0,0-.14.354.632.632,0,0,0,.336.568,1.509,1.509,0,0,0,.67.165,17.417,17.417,0,0,0,2.532-.165,5.354,5.354,0,0,1,3.231.621,5.917,5.917,0,0,1,1.392,1.246c.31.367.665,1.2,1.085,1.418.8.418.7-1.508.641-1.87a4.2,4.2,0,0,0-1.172-2.33c-.7-.693-1.539-.4-2.389-.717C1305.874,619.663,1305.4,619.129,1304.766,618.925Z" transform="translate(-880.809 -423.299)" fill="#7f2c30"/>
        <path id="Path_275" data-name="Path 275" d="M1312.406,648.462c-1.392.275-2.855-.682-3.76-1.655-.318-.341-.776.1-.637.472a.367.367,0,0,0,.109.295c1.094,1.117,2.7,2.2,4.321,1.759a.356.356,0,0,0,.21-.152C1312.953,649,1312.8,648.383,1312.406,648.462Z" transform="translate(-886.07 -448.275)" fill="#cd5d4c" opacity="0.6"/>
        <path id="Path_276" data-name="Path 276" d="M1285.043,651.286a.378.378,0,0,1-.112-.017,12.048,12.048,0,0,1-8.331-8.684.386.386,0,0,1,.759-.139,11.264,11.264,0,0,0,7.794,8.083.386.386,0,0,1-.111.756Z" transform="translate(-866.169 -445.393)" fill="#cd5d4c"/>
        <path id="Path_277" data-name="Path 277" d="M1219.543,948.086a29.342,29.342,0,0,0-1.606,3.446c-.244.6.794,1.042,1.052.443.482-1.12,1.033-2.2,1.565-3.3.325-.67-.635-1.254-1.011-.591Z" transform="translate(-828.952 -639.199)" fill="#dc815c"/>
        <path id="Path_278" data-name="Path 278" d="M1106.919,820.2s-18.017,15.765-17.052,18.017,49.153,28.995,50.636,28.814,25.291-25.6,25.291-26.884-42.391-23.194-45.808-23.662-13.068,3.715-13.068,3.715Z" transform="translate(-747.746 -555.914)" fill="#6677c1"/>
        <path id="Path_279" data-name="Path 279" d="M1116.571,824.36s-15.442,13.3-15.209,14.928c.161,1.126,44.076,25.416,46.329,25.416s20.751-21.395,20.751-22.36-42.951-22.682-42.951-22.682Z" transform="translate(-755.057 -557.955)" fill="#fff"/>
        <path id="Path_280" data-name="Path 280" d="M1250.071,898.168s-4.826-2.9-5.791-2.9-9.974,9.33-9.33,10.3,4.5,3.217,4.5,3.217Z" transform="translate(-839.742 -605.897)" fill="#6677c1"/>
        <path id="Path_281" data-name="Path 281" d="M1228.318,919.513s4.907,3.356,5.872,4.964,1.287,5.469.643,6.113-8.365,5.148-8.365,5.148l-2.9-6.435Z" transform="translate(-832.548 -621.267)" fill="#e9946b"/>
        <path id="Path_282" data-name="Path 282" d="M1171.719,855.775a84.285,84.285,0,0,0-7.039,7.314c-.477.554.308,1.385.794.827,2.228-2.556,4.6-4.961,7.06-7.293C1173.085,856.1,1172.278,855.265,1171.719,855.775Zm-3.568-1.239c-3.3,3.569-6.431,7.3-9.622,10.961-.487.559.308,1.4.8.838,3.217-3.642,6.506-7.234,9.615-10.969C1169.412,854.81,1168.662,853.983,1168.151,854.537Zm-2.873-2.488c-3.241,3.421-6.271,7.052-9.372,10.6-.471.539.295,1.349.776.808,3.135-3.519,6.359-6.979,9.351-10.622C1166.468,852.307,1165.772,851.527,1165.278,852.049Zm-15.728,1.494c-3.505,3.821-6.84,7.8-10.116,11.814-.452.554.316,1.372.78.812,3.31-3.991,6.727-7.888,10.134-11.8.481-.552-.292-1.381-.8-.83Zm1.2-6.316c-5.144,5.282-10.128,10.723-15.158,16.113-.5.54.286,1.37.8.83,5.071-5.352,10.2-10.661,15.151-16.121C1152.031,847.51,1151.268,846.7,1150.751,847.226Zm-1.167-4.07c-6.142,5.983-12.036,12.258-17.578,18.8-.464.547.3,1.365.784.816,5.7-6.422,11.559-12.673,17.641-18.737C1150.986,843.483,1150.148,842.606,1149.583,843.156Zm-5.752.59c-3.368,3.487-6.7,7.007-10.04,10.521-.509.536.282,1.366.8.83,3.36-3.494,6.728-6.979,10.061-10.5C1145.171,844.048,1144.361,843.2,1143.831,843.746Zm-16.555,4.234c-2.238,2.094-4.419,4.255-6.591,6.417a.561.561,0,0,0,.776.808c2.222-2.111,4.442-4.231,6.6-6.41a.566.566,0,0,0-.783-.816Z" transform="translate(-767.204 -572.741)" fill="#e3e8ea"/>
        <path id="Path_283" data-name="Path 283" d="M1236.316,927.131a3.1,3.1,0,0,0-1.065.643q-2.134,1.482-4.26,2.975-2.874,2.016-5.728,4.06c-1.751,1.255-3.5,2.518-5.216,3.819a14.935,14.935,0,0,0-2.727,2.253,15.282,15.282,0,0,0-2.253,3.049q-.364.235-.724.476c-.294.2-.028.664.279.478.191-.116.38-.233.569-.351.638.334,3.144-.781,3.737-1.078a3.5,3.5,0,0,0,.338-.212c1.022-.665,2.024-1.361,3.029-2.05q2.459-1.687,4.9-3.4,2.652-1.854,5.283-3.735c1.4-1.006,2.8-2.015,4.173-3.067.408-.313.819-.627,1.2-.968a2.434,2.434,0,0,0,.3-.287c.342-.431.03-1.193-.208-1.62A1.844,1.844,0,0,0,1236.316,927.131Z" transform="translate(-826.615 -626.088)" fill="#4a3333"/>
        <path id="Path_284" data-name="Path 284" d="M1134.33,823.429q1.905,2.247,3.8,4.5,4.137,4.91,8.236,9.851c1.42,1.713,2.863,3.409,4.28,5.125,1.3,1.576,2.448,3.282,3.714,4.854a22.512,22.512,0,0,1,5.068,10.277,14.777,14.777,0,0,1,.183,1.832c.049,1.336-.048,2.809.786,3.853.531.665,1.385,1.064,1.764,1.826.351.706.255,1.546.807,2.161.469.523,1.076.559,1.649.868,1.156.623.817,2.144,2.529,2.144,1.93,0,4.826-5.469,5.469-5.469s.965,2.252.643,3.217-.965,2.574-.643,2.9,1.93,0,3.217-1.93.965-5.469.322-7.721-6.435-13.191-6.435-13.191l-18.982-32.816S1136.582,816.351,1134.33,823.429Z" transform="translate(-775.962 -555.447)" fill="#e9946b"/>
        <path id="Path_285" data-name="Path 285" d="M1244.1,933.857a20.174,20.174,0,0,0-2.312-5.553.594.594,0,0,0-1.024.6,29.106,29.106,0,0,1,2.187,5.271A.6.6,0,0,0,1244.1,933.857Z" transform="translate(-843.396 -626.658)" fill="#dc815c"/>
        <path id="Path_286" data-name="Path 286" d="M1150.487,687.563a80.939,80.939,0,0,0-8.365,12.226,79.239,79.239,0,0,0-3.677,8.2c-.486,1.248-1.361,2.619-1.451,4.012a3.17,3.17,0,0,0,.022.673,2.516,2.516,0,0,0,.338.888c.232.4.524.782.718,1.187a9.96,9.96,0,0,1,1.255,5.5c-.026.222-.492,2.918-.9,2.867a41.362,41.362,0,0,0-8.365.322c-5.148.643-8.686,6.113-10.3,5.791-1.242-.248-2.39-1.56-3.214-2.429a7.507,7.507,0,0,1-2.329-4.34,16.815,16.815,0,0,1,.148-2.725,8.253,8.253,0,0,0-.936-4.385,16.255,16.255,0,0,1-1.11-3.262c-.61-2.82.2-5.041,1.327-7.572,1.031-2.321.776-4.708,1.552-7.077a13.827,13.827,0,0,1,1.844-3.3c2.989-4.448,5.148-9.294,7.483-14.095.955-1.959,1.924-3.912,2.957-5.833,3.378-6.274,11.421-8.847,11.421-8.847,12.064,1.447,11.582,22.2,11.582,22.2Z" transform="translate(-761.875 -460.119)" fill="#eb4450"/>
        <path id="Path_287" data-name="Path 287" d="M1153.5,688.82a109.985,109.985,0,0,0-9.9,17.631c-.631,1.386-1.91,3.362-2.037,5.118a5.789,5.789,0,0,0-1.321-.18,22.786,22.786,0,0,1-3.951-.007,17.337,17.337,0,0,0-3.262-.334c-4.662.077-8.957,2.291-12.692,4.913-.582.409-.055,1.361.569.972,3.616-2.265,7.464-4.462,11.843-4.6,2-.061,3.925.659,5.917.5a6.793,6.793,0,0,1,2.966.1c.048.016.094.038.141.056a2.615,2.615,0,0,0,.12.249,13.665,13.665,0,0,1,1.874,3.88,8.26,8.26,0,0,1,.157,2.319.656.656,0,0,0,.564.7l.013,0a.657.657,0,0,0,.748-.617,10.331,10.331,0,0,0-.59-3.908,10.169,10.169,0,0,0-.775-1.7c-.34-.583-1.079-1.294-1.117-1.993a7.146,7.146,0,0,1,.969-2.642q.531-1.23,1.089-2.448a150.359,150.359,0,0,1,9.647-17.436C1154.863,688.766,1153.91,688.235,1153.5,688.82Zm1.028-2.832c.048.4-.579.4-.63,0a47.55,47.55,0,0,0-2.863-12.274c-1.425-3.474-3.777-7.625-7.722-8.452q.413-.187.833-.357c3.468,1.081,5.688,4.553,7.126,7.783A45.72,45.72,0,0,1,1154.528,685.988Z" transform="translate(-766.93 -459.828)" fill="#be2328"/>
        <ellipse id="Ellipse_28" data-name="Ellipse 28" cx="3.217" cy="6.113" rx="3.217" ry="6.113" transform="translate(365.779 223.162) rotate(-60)" fill="#fff"/>
        <path id="Path_288" data-name="Path 288" d="M1291.176,759.539a.576.576,0,0,0-.8.317c-2.383,6.4-6.6,11.86-9.7,17.96-.493.969,1.366.467,1.9-.5,3.013-5.478,6.611-10.6,8.9-17.067a.579.579,0,0,0-.283-.707Z" transform="translate(-868.701 -519.792)" fill="#fff"/>
        <path id="Path_289" data-name="Path 289" d="M1514.6,1339.063c0,1.563-16.413,1.563-39.069,1.563s-43.367.391-42.976-1.563c.459-2.3,18.366-1.954,41.022-1.954S1514.6,1337.11,1514.6,1339.063Z" transform="translate(-965.053 -886.04)" fill="#827893"/>
        <path id="Path_290" data-name="Path 290" d="M1472.431,1210.816c0-.391-.391-13.283.391-14.065s13.479-.586,13.479-.586l-1.953,3.516s-6.251,0-6.837.586c-.618.618.391,10.158.391,10.158Z" transform="translate(-990.279 -796.669)" fill="#be2328"/>
        <path id="Path_291" data-name="Path 291" d="M1440.724,1232.628c.305.376.946.327,1.651.333l2.685.025q5.68.052,11.36.1,7.67.06,15.34.108,8.318.051,16.637.08,7.626.025,15.253.012c3.729-.009,7.458-.022,11.185-.1.466-.009,4.182.262,4.436-.245.391-.781-.781-9.377-2.735-10.158s-71.105-1.172-73.059.391c-1.463,1.17-1.909,3.844-2.314,5.549a21.209,21.209,0,0,0-.618,3.029A1.19,1.19,0,0,0,1440.724,1232.628Z" transform="translate(-970.118 -813.128)" fill="#eb4450"/>
        <path id="Path_292" data-name="Path 292" d="M1448.57,1249.59s2.344,33.208,3.516,33.6,63.682,1.563,65.245,0,4.3-33.6,4.3-33.6Z" transform="translate(-975.212 -830.558)" fill="#4d4d4d"/>
        <path id="Path_293" data-name="Path 293" d="M1562.7,1255.877c-.31,9.6-.652,19.353-.643,28.956,0,.943.961.346,1.013-.56.549-9.586.573-19.228.8-28.825C1563.9,1254.531,1562.734,1254.97,1562.7,1255.877Z" transform="translate(-1047.174 -833.951)" fill="#1a1a1a"/>
        <path id="Path_294" data-name="Path 294" d="M1530.808,1225.286s.391-25-.781-25.785-41.413,0-41.413,0l1.758-3.711s43.171-.977,44.734.977,1.172,28.129.781,29.3S1530.417,1233.1,1530.808,1225.286Z" transform="translate(-1000.602 -796.29)" fill="#be2328"/>
        <path id="Path_295" data-name="Path 295" d="M1478.637,1237.549s-1.172,10.158,0,11.33,13.283.391,13.674-.391,1.172-10.549.391-10.939S1478.637,1237.549,1478.637,1237.549Z" transform="translate(-993.947 -822.813)" fill="#eb4450"/>
        <path id="Path_296" data-name="Path 296" d="M1490.825,1229.338a65.909,65.909,0,0,0-9.99-.612c-.734.018-1.575.129-1.891.887a3.506,3.506,0,0,0-.191,1.1,2.979,2.979,0,0,0,.061,1.545.368.368,0,0,0,.459.17.49.49,0,0,0,.193-.258,2.911,2.911,0,0,0,.217-.869c.036-.393.014-.847.307-1.111a1.26,1.26,0,0,1,.84-.22c1.141-.022,2.266-.013,3.4-.016,1.613,0,3.21.049,4.822.127.41.02,1.04.012,1.234.45a1.618,1.618,0,0,1,.092.662q-.008,3.025-.113,6.048a6.308,6.308,0,0,0-.046,1.957.519.519,0,0,0,.8.24c.409-.292.29-1.139.316-1.576q.227-3.873.261-7.754A.8.8,0,0,0,1490.825,1229.338Zm16.712-4.391a21.12,21.12,0,0,0-1.141,6.751.6.6,0,1,0,1.189.028,22.68,22.68,0,0,1,.965-6.435C1508.781,1224.423,1507.832,1224.119,1507.537,1224.947Z" transform="translate(-994.304 -814.624)" fill="#be2328"/>
        <path id="Path_297" data-name="Path 297" d="M1476.453,796.564a24.78,24.78,0,0,0-12.649-8.734c-3.193-1.049-6.448-1.958-9.67-2.923q-8.416-2.52-16.849-4.986l-2.054,16.659q3.432.339,6.863.7c4.361.45,8.721.911,13.075,1.416,1.787.208,3.574.419,5.357.665.588.081,1.222.126,1.815.254Z" transform="translate(-966.755 -532.756)" fill="#e9946b"/>
        <path id="Path_298" data-name="Path 298" d="M2401.625,895.433c10.438-.631,11.037-.723,11.76-.46s6.939,12.251,5.9,14.009S2396.774,895.726,2401.625,895.433Z" transform="translate(-1579.063 -605.619)" fill="#eb4450"/>
        <path id="Path_299" data-name="Path 299" d="M2095.5,689.353l-2.035-3.7c-12,12.526-33.633,28.667-47.735,39.049a21.416,21.416,0,0,1-6.792.61c-.021-.044-.03-.091-.053-.135a5.805,5.805,0,0,0-10.333,5.3,5.737,5.737,0,0,0,.946,1.3,10.88,10.88,0,0,0-3.48,4.651,12.16,12.16,0,1,0,2.77,19.553,4.221,4.221,0,0,0,7.491.841,6.392,6.392,0,0,0,10.935-3.093,4.646,4.646,0,0,0,3.579-2.118,8.645,8.645,0,0,0,11.257-8.828,4.073,4.073,0,0,0,4.295-2.566,4.724,4.724,0,1,0,5.231-7.47c5.089-8.846,23.922-43.393,23.922-43.393Zm-36.7,47.262.222-.013c-.025.041-.059.078-.082.12C2058.9,736.684,2058.854,736.651,2058.807,736.615ZM2039.3,760.746a1.182,1.182,0,1,0-.513,1.591A1.182,1.182,0,0,0,2039.3,760.746Zm12.017-3.059a2.04,2.04,0,1,0-.885,2.745,2.039,2.039,0,0,0,.885-2.745Z" transform="translate(-1330.077 -472.983)" fill="#d9ebf1" opacity="0.91"/>
        <path id="Path_300" data-name="Path 300" d="M2163.782,842.814a3.132,3.132,0,1,0-1.359,4.216,3.132,3.132,0,0,0,1.359-4.216Z" transform="translate(-1424.952 -571.554)" fill="#d9ebf1" opacity="0.91"/>
        <path id="Path_301" data-name="Path 301" d="M2200.3,746.679a23.118,23.118,0,0,1,4.949,2.2c1.342,1.036,4.323,5.3,5.081,6.138s-2.566,3.7-2.566,3.7l-5.893-5.659-1.57-6.381Z" transform="translate(-1451.861 -511.678)" fill="#eb9062"/>
        <path id="Path_302" data-name="Path 302" d="M2141.771,961.718a1.356,1.356,0,0,1-.587-.134c-10.451-4.986-15.9-10.01-17.16-15.809-1.772-8.186,5.27-16.562,13.425-26.261,12.69-15.094,17.314-91.282,12.686-209.028-.145-3.693-.157-4.05-.139-4.246.292-3.275,1.393-5.547,3.368-6.946,4.394-3.112,12.155-1.134,22.9,1.605,1.391.355,2.83.722,4.315,1.091,7.8,1.939,14.127,1.119,18.81-2.436,6.1-4.633,7.927-12.8,8.042-16.89a1.367,1.367,0,0,1,2.732.078c-.13,4.579-2.2,13.731-9.122,18.989-5.375,4.081-12.482,5.06-21.123,2.911-1.49-.371-2.934-.739-4.33-1.095-9.653-2.461-17.277-4.405-20.641-2.023-1.274.9-2,2.51-2.221,4.914,0,.3.062,1.836.144,3.94,2.735,69.59,4.641,189.525-13.325,210.894-7.691,9.148-14.333,17.049-12.844,23.924,1.048,4.838,6.171,9.391,15.665,13.921a1.367,1.367,0,0,1-.59,2.6Z" transform="translate(-1403.322 -470.246)" fill="#1a1a1a"/>
        <path id="Path_303" data-name="Path 303" d="M2314.73,655.315a20.083,20.083,0,0,1,6.121-2.829,13.94,13.94,0,0,1,3.367-.3,48.292,48.292,0,0,1,5.371.122,8.708,8.708,0,0,1,3.835.88c3.462,2.2,20.142,22.346,21.086,24.234s-13.848,5.35-13.848,5.35-10.543-19.355-11.487-19.67c-.814-.271-1.837,2.04-2.172,2.525s-.766,1.065-1.445.914c-.843-.187-.992-.928-.9-1.667.043-.354.717-3.346.113-3.346-.244,0-.729,2.012-.841,2.249-.185.392-.469.985-.938,1.083a1.1,1.1,0,0,1-1.178-.868c-.091-.277-.217-3.092-.19-3.092-.222,0-.5.712-.584.863a7.045,7.045,0,0,1-.958,1.43c-.355.371-.922.775-1.4.381a2.435,2.435,0,0,1-.606-1.964c.106-.837.585-1.9-.424-2.4a3.054,3.054,0,0,0-1.45-.146c-.769.018-1.552.14-2.323.082a1.551,1.551,0,0,1-1.369-.807c-.219-.531-.3-.984.163-1.4a19.783,19.783,0,0,1,2.058-1.623Z" transform="translate(-1522.899 -451.749)" fill="#eb9062"/>
        <path id="Path_304" data-name="Path 304" d="M2291.7,649.975s22.031,13.848,23.6,13.848a2.128,2.128,0,0,0,1.888-2.832c-.315-1.259-24.622-12.406-24.622-12.406Z" transform="translate(-1509.814 -449.479)" fill="#1a1a1a"/>
        <path id="Path_305" data-name="Path 305" d="M2309.638,654.432s-17.939-8.5-18.254-8.5-2.916,3.838-2.916,3.838,17.816,9.613,19.7,9.613S2311.211,655.69,2309.638,654.432Z" transform="translate(-1507.765 -447.799)" fill="#3b4444"/>
        <path id="Path_306" data-name="Path 306" d="M2327.781,658.406a25.142,25.142,0,0,0-5.98.629c-1.076.359-6.294,1.259-5.35,2.518.681.908,4.092,2.833,8.5.944,0,0,2.2,1.888,7.239,1.888Z" transform="translate(-1525.436 -455.707)" fill="#eb9062"/>
        <path id="Path_307" data-name="Path 307" d="M2331.368,664.039c-4.281,0-6.593-1.327-7.307-1.822-4.577,1.831-8.1-.252-8.807-1.2a.93.93,0,0,1-.155-.891c.34-.95,2.329-1.507,4.7-2.087.449-.11.837-.205,1.037-.272a25.132,25.132,0,0,1,6.129-.654.472.472,0,1,1,0,.944,23.049,23.049,0,0,0-5.831.605c-.236.079-.622.173-1.111.293-2.524.618-3.878,1.113-4.027,1.473,0,0,.008.011.016.021.525.7,3.71,2.6,7.934.793a.472.472,0,0,1,.493.076c.02.016,2.163,1.775,6.932,1.775a.472.472,0,1,1,0,.944Z" transform="translate(-1524.618 -454.888)" fill="#db7e4b"/>
        <path id="Path_308" data-name="Path 308" d="M2252.46,645.935c-4.318,1.58-23.245,16.142-25.036,17.584s4.049,6.368,4.96,6.505,23.321-19.526,23.321-19.526Z" transform="translate(-1468.844 -447.799)" fill="#3b4444"/>
        <path id="Path_309" data-name="Path 309" d="M2245.93,657.577c1.026,1.71,5.2,7.8,5.473,8.21s3.013-1.889,2.668-2.395-4.994-7.526-5.884-7.594S2245.93,657.577,2245.93,657.577Zm16.214-3.045c2.976,2.532,9.407.5,9.236.338s-6.157-5.332-6.26-5.3S2262.144,654.532,2262.144,654.532Zm-3.659-4.741c-.41-.288,4.437-4.072,5.161-3.172S2258.485,649.792,2258.485,649.792Z" transform="translate(-1480.793 -448.146)" fill="#3b4444"/>
        <path id="Path_310" data-name="Path 310" d="M2377,622.275s.676,5.71,1.856,5.816a12.041,12.041,0,0,0,3-.325l.053-.59s-2.708.351-2.976.03a38.882,38.882,0,0,1-1.077-4.557Z" transform="translate(-1563.901 -432.797)" fill="#1a1a1a"/>
        <path id="Path_311" data-name="Path 311" d="M2383.57,598.9s1.2,23,4.636,24.5c3,1.31,6.487-1.052,6.487-1.052l-.744,6.623s17.108,4.327,17.777,3.5-3.117-7.827-3.1-14.663S2383.57,598.9,2383.57,598.9Z" transform="translate(-1568.066 -417.974)" fill="#eb9062"/>
        <path id="Path_312" data-name="Path 312" d="M2378.589,576.239s3.705,5.09,4.752,6.671,5.1,6.107,6.389,8.3,2.31,4.072,5.5,4.954,8.337-.143,8.712-1,.289-6.515.848-9.438,2.077-13.192-.875-16.728c-3.913-4.686-6.223-3.532-6.223-3.532s-.888-3.35-3.6-3-4.288,1.4-6.326.918-4.477.192-4.235.809,1.127.7,1.127.7-8.311.746-9.057,4.835C2375.02,572.945,2378.589,576.239,2378.589,576.239Z" transform="translate(-1562.976 -394.861)" fill="#4b3333"/>
        <path id="Path_313" data-name="Path 313" d="M2413.654,656.335a.53.53,0,0,0-1.055-.095c-.049.491-.168,1.573-.172,2.066a.516.516,0,0,0,1.028.092C2413.539,657.912,2413.615,656.826,2413.654,656.335Z" transform="translate(-1586.364 -454.039)" fill="#db7e4b"/>
        <path id="Path_314" data-name="Path 314" d="M2389.94,619.591a.675.675,0,0,0,.231.3c.225.128.523-.076.585-.328a1.179,1.179,0,0,0-.145-.748,10.514,10.514,0,0,0-1.274-2.114,2.108,2.108,0,0,0-.509-.508.4.4,0,0,0-.7.194,1.149,1.149,0,0,0,.467,1.428A6.083,6.083,0,0,1,2389.94,619.591Zm-5.54-5.25a4.358,4.358,0,0,0-.7,1.127l-6.485,2.688a2.992,2.992,0,0,1-.216-.911C2377.03,616.949,2384.4,614.341,2384.4,614.341Z" transform="translate(-1563.901 -427.767)" fill="#1a1a1a"/>
        <path id="Path_315" data-name="Path 315" d="M2432.63,575.666a1.4,1.4,0,0,0-1.059-.007,5.068,5.068,0,0,0-.654.38,3.41,3.41,0,0,0-2.956-1.121c-.686.085-.489,1.121.191,1.052a2.16,2.16,0,0,1,1.458.35c.32.219.547.7.9.863a.941.941,0,0,0,.738-.015,10.805,10.805,0,0,1,1.294-.568A.49.49,0,0,0,2432.63,575.666Z" transform="translate(-1595.942 -402.751)" fill="#3a1714"/>
        <path id="Path_316" data-name="Path 316" d="M2394.8,614.623s.881-3.191,3.751-2.042,2.635,7.075.143,8.337S2394.8,614.623,2394.8,614.623Z" transform="translate(-1575.187 -426.492)" fill="#eb9062"/>
        <path id="Path_317" data-name="Path 317" d="M2405.5,633.379a.6.6,0,0,0-.451-.315.552.552,0,0,0-.5.23c-.048.059-.1.112-.149.172l0,.006h0c-.031.029-.06.059-.091.087q-.075.068-.156.127l-.071.048-.068.038a.539.539,0,0,0,.458.976,2.408,2.408,0,0,0,.982-.813A.549.549,0,0,0,2405.5,633.379Z" transform="translate(-1580.825 -439.634)" fill="#db7e4b"/>
        <path id="Path_318" data-name="Path 318" d="M2431.951,743.331a22.584,22.584,0,0,1-1.374,7.227l-49.412,4.406a26.411,26.411,0,0,1-2.01-11.965c.143-3.989.52-7.995.668-11.962a24.347,24.347,0,0,0-.859-6.867c-1.258-4.965-3.412-9.632-5.051-14.47-1.415-4.178-3.151-9.406-1.455-13.645,2.254-5.635,4.811-11.158,7.446-16.624,0,0,4.091-5.35,14.792-7.238s10.386-1.574,10.7-.944a10.318,10.318,0,0,1,0,3.147s10.7,2.518,17.625,8.183,5.98,25.493,4.721,29.269c-1.18,3.54.37,8.582.909,12.166q.993,6.6,2.382,13.133A40.351,40.351,0,0,1,2431.951,743.331Z" transform="translate(-1560.577 -463.54)" fill="#eb4450"/>
        <path id="Path_319" data-name="Path 319" d="M2433.488,696.066a35.263,35.263,0,0,0-6.325-10.768c-.238-.273-.632.125-.4.4,11.03,12.733,9.7,30.835,9.155,46.5a125.089,125.089,0,0,0,.2,15.432c.034.389.646.393.612,0-1.47-17.123,3-35.017-3.249-51.557Zm16.361,20c-.772-7.768-.609-16.126-5.148-23.076-.589-.9-1.775-.906-1.187.009,5.885,9.157,3.527,20.44,5.9,30.584A20.8,20.8,0,0,1,2449.849,716.063Zm-26.189-36.331a82.178,82.178,0,0,0-17.329,2.849.539.539,0,0,0,.286,1.038,156.152,156.152,0,0,1,17.042-2.874C2424.286,680.666,2424.328,679.7,2423.659,679.732Z" transform="translate(-1582.255 -469.229)" fill="#be2328"/>
        <path id="Path_320" data-name="Path 320" d="M2208.468,759.471c-4.5-2.267-8.29-3.881-12.085-7.393-1.77-1.639-3.909-1.818-6.225-2.145a10.637,10.637,0,0,1-3.354-1.065,3.888,3.888,0,0,1-1.336-1c-.372-.473-.6-1.04-.956-1.525a.353.353,0,0,0-.143-.131c-.863-.34-1.091,1.6-1.208,2.057a2.984,2.984,0,0,0-.121.732,2.726,2.726,0,0,0,.5,1.219,3.824,3.824,0,0,1,.691,1.511c.034.637-.743.662-.957,1.153-.424.975,1.04,1.865.785,2.944a2.73,2.73,0,0,0-.169,1.2c.176.794,1.213,1.078,1.582,1.8a5.457,5.457,0,0,1,.2,1.786,3.018,3.018,0,0,0,1.128,1.85,8.432,8.432,0,0,0,3.343,1.462c4.471,1.258,4.051,1.051,8.016,3.552,7.25,4.573,19.5,13.423,26.906,17.75.261.153-.358-1.557-.1-1.4l.691.151a23.728,23.728,0,0,0-.422-8.322l-1.53-8.988c-5.189-2.181-10.21-4.66-15.232-7.191Z" transform="translate(-1440.916 -511.355)" fill="#eb9062"/>
        <path id="Path_321" data-name="Path 321" d="M2341.781,719.355c-.071,1.843-1.28,2.965-1.968,4.774-.716,1.884-3.193,3.632-5.325,4.6-2.312,1.049-4.132,2.889-6.184,4.384a18.761,18.761,0,0,1-1.918,1.277,34.264,34.264,0,0,1-4.943,1.84,27.755,27.755,0,0,0-4.127,2.221,89.276,89.276,0,0,0-8.207,5.6,43.436,43.436,0,0,1-9.005,4.506,22.026,22.026,0,0,0-4.13,1.77c-.054.035-.106.073-.158.111a7.225,7.225,0,0,0-.972.91c-1.071,1.147-2.065,2.565-3.609,2.8-1.815.281-6.208-.571-9.225-4.2s-5.773-11.689-2.179-15.712a7.235,7.235,0,0,1,2.417-1.626,34.538,34.538,0,0,1,4.475-1.352q.357-.111.707-.245a7.222,7.222,0,0,0,2.151-1.805c1.663-1.653,3.261-3.373,4.851-5.1,3.665-3.977,7.254-8.029,10.826-12.089,1.145-1.3,2.283-2.614,3.432-3.913.141-.164.284-.324.427-.485.031-.033.061-.069.092-.105.67-.76,1.488-1.758,2.341-2.827l.44-.555c2.563-3.243,10.593-9.442,10.593-9.442Z" transform="translate(-1501.208 -478.717)" fill="#eb4450"/>
        <path id="Path_322" data-name="Path 322" d="M2304.375,819.572q-.081.053-.157.111a7.2,7.2,0,0,0-.973.91c-3.422-.748-6.508-3.02-9.182-5.156-3.747-2.99-3.111-7.508-.92-11.266a.545.545,0,0,1,.95.532,10.087,10.087,0,0,0-1.619,5.539c.156,2.47,1.679,3.8,3.558,5.162,2.565,1.867,5.222,3.6,8.343,4.167Z" transform="translate(-1509.608 -547.963)" fill="#be2328"/>
        <path id="Path_323" data-name="Path 323" d="M2355.222,773.211c2.717,2.415,3.9,5.517,2.649,6.929s-4.474.6-7.191-1.818-3.9-5.517-2.65-6.929S2352.5,770.8,2355.222,773.211Zm15.212,7.728c-2.288,1.273-4.976,3.23-7.217,4.588-.593.359.468,1.274,1.054.932a44.8,44.8,0,0,0,6.71-4.4C2371.362,781.729,2370.938,780.658,2370.434,780.939Zm29.834,201.482s2.282-5.475,3.182-16.876,13.5,3,13.5,3,.9,9.6,1.5,11.1,1.8,4.2,1.8,4.2Z" transform="translate(-1545.214 -526.909)" fill="#fff"/>
        <path id="Path_324" data-name="Path 324" d="M2475.667,1341.017c2.069.548,4.719.365,6.839.491,2.654.158,5.318.276,7.977.213,2.273-.054,4.548-.049,6.82-.155,1.417-.066,2.891-.033,3.43-1.576,1.337-3.829-1.046-8.376-2.308-11.9a1.166,1.166,0,0,0-.406-.639,1.039,1.039,0,0,0-.509-.121,7.864,7.864,0,0,0-4.718,1.678c-1.394.973-2.641,2.153-4.088,3.045a4.394,4.394,0,0,1-2.878.82,3.537,3.537,0,0,1-2.465-2.021,4.655,4.655,0,0,1-.484-3.067c-.651,1.853-1.2,4.2-3.6,6.3a5.267,5.267,0,0,1-1.629,1.061,4.9,4.9,0,0,0-2.942,4.9,1.1,1.1,0,0,0,.22.633,1.12,1.12,0,0,0,.538.288Z" transform="translate(-1625.838 -879.844)" fill="#5c3b3b"/>
        <path id="Path_325" data-name="Path 325" d="M2390.518,1277.91l-.007.028.008-.021A.015.015,0,0,1,2390.518,1277.91Z" transform="translate(-1572.467 -848.515)" fill="#ee8f5f"/>
        <path id="Path_326" data-name="Path 326" d="M2335.706,1233.51c-.336,9.252-1.9,27.748-2.4,29.086-.875,2.334-1.949,5.841-18.485,12.53-3.389,1.371-6.271,3.623-5.98,5.665s41.313,2.088,42.189.337-2.115-10.289-1.823-15.832a68.82,68.82,0,0,1,2.871-15.675q.433-1.326.878-2.7c.956-2.964,1.929-6.064,2.793-9.105A136.354,136.354,0,0,0,2335.706,1233.51Z" transform="translate(-1520.671 -820.362)" fill="#fff"/>
        <path id="Path_327" data-name="Path 327" d="M2340.471,1328.28c-4.925.29-9.84-8.562-9.9-8.674-3.746,3.882-15.547,9.011-17.881,9.971-4.165,1.712-5.827,4.1-5.535,6.144s41.92,1.751,42.8,0c.616-1.231-.48-6.6-1.523-11.632C2344.656,1322.83,2345.413,1327.989,2340.471,1328.28Z" transform="translate(-1519.596 -874.952)" fill="#5c3b3b"/>
        <path id="Path_328" data-name="Path 328" d="M2408.837,905.834c-1.2,12-4.8,15-6.9,22.2s-3.6,21.3-3.6,21.3-.468,2.271-1.077,5.539c-.859,4.65-1.663,9.318-2.221,14.014-.615,5.181-.131,10.3-1.368,15.442-2.081,8.643-5.35,16.4-4.784,25.458.3,4.8-3.6,32.7-5.1,33.6s-24.3-4.5-24.9-7.5c-.27-1.353,2.055-30.955,4.689-63.039q.762-9.283,1.531-18.553l.151-1.806c.285-3.414.567-6.8.843-10.113l.09-1.068c2.091-24.982,5.2-48.107,5.5-51.692.015-.174.291-.51.3-.6s-.3,1.8-.3,1.8l7.93-2.166,28.612-7.719s.426,3.042.723,7.545c.1,1.431.18,3.012.231,4.689A98.782,98.782,0,0,1,2408.837,905.834Z" transform="translate(-1552.401 -596.804)" fill="#eb4450"/>
        <path id="Path_329" data-name="Path 329" d="M2447.473,898.192q-.049-.527-.1-1.044c-.429-4.4-2.2-14.878-2.36-16.411-.29-2.7.066-5.862-.194-8.251-.383.114-.765.234-1.149.346-16.01,4.675-32.775,8.123-49.384,4.308l-.407,4.344-.36,3.828.138.291.213.447,24.341,54.029s.426,3.858,1.023,9.438c1.347,12.562,3.57,33.853,3.777,39.464.3,8.1,1.05,47.552,2.55,49.652s23.251-.45,24.451-1.95,2.55-85.054-2.25-135.456q-.148-1.544-.291-3.036Z" transform="translate(-1574.375 -591.448)" fill="#eb4450"/>
        <path id="Path_330" data-name="Path 330" d="M2381.982,988.989c-.417,2.265-.876,4.521-1.239,6.8q-.578,3.614-.975,7.254c-.2,1.869-.03,4.119-.648,5.9-.456,1.329-1.524,1.545-2.79,1.641a25.457,25.457,0,0,1-4.59-.093c.03-.39.063-.783.1-1.176a25.415,25.415,0,0,0,3.939.114c1.086-.054,2.166-.3,2.337-1.494.123-.861.153-1.74.234-2.607q.437-4.664,1.158-9.294c.534-3.426,1.512-6.879,1.731-10.344a5.423,5.423,0,0,0-.486-3.006,44.265,44.265,0,0,1-7.479,9.264l.153-1.815a55.03,55.03,0,0,0,6.591-8.349,4.668,4.668,0,0,0-1.4-.8,18.081,18.081,0,0,0-4.35-.969l.09-1.068c3.021.165,7.266.93,7.977,4.281A15.329,15.329,0,0,1,2381.982,988.989Zm51.34-33.265c-1.93-.924-4.62-1.864-6-3.581-1.205-1.5-.831-3.893-.878-5.681a33.293,33.293,0,0,1-.1-3.9c.049-.519.131-.9.648-1.134a9.654,9.654,0,0,1,2.63-.276,26.656,26.656,0,0,0,3.92-.845l.09.951a23.589,23.589,0,0,1-4.746.981c-.255.027-1.034-.066-1.241.1-.421.328-.249.771-.235,1.257q.041,1.435.085,2.865c.06,2.012-.364,4.494,1.528,5.765a38.4,38.4,0,0,0,4.841,2.562C2434.492,955.084,2433.948,956.021,2433.322,955.724Zm-30.863-10.645c-.177,2.28-.275,4.568-.479,6.845a3.544,3.544,0,0,1-1.627,3.158,26.582,26.582,0,0,1-2.458,1.286q-1.344.677-2.689,1.355c-1.359.681-2.275.8-3.539-.242-.9-.736-1.737-1.55-2.6-2.324a22.034,22.034,0,0,1-2.323-2.089c-.767-.93-.534-1.849-.433-2.982l.281-3.141a15.158,15.158,0,0,1,.287-3.1,10.582,10.582,0,0,1,1.314.23q.917.12,1.838.211a57.477,57.477,0,0,0,12.789-.2c.612-.077.385-.993-.215-.93a61.175,61.175,0,0,1-13.844-.081c-.968-.119-2.532-.77-2.924.482a15.686,15.686,0,0,0-.292,3.077l-.308,3.4c-.152,1.684-.4,2.735.906,3.931,1.592,1.453,3.167,2.956,4.823,4.337a3.444,3.444,0,0,0,3.6.923,48.372,48.372,0,0,0,5.562-2.77,4.686,4.686,0,0,0,2.863-3.594c.361-2.541.4-5.183.559-7.744A.544.544,0,0,0,2402.459,945.078Zm12.431,3.618c-.268,4.189-2.131,7.847-3.526,11.681-1.5,4.135-1.692,8.543-2.463,12.87-1.532,8.6-4.179,17.1-4.2,25.932a.822.822,0,1,0,1.643,0c.294-9.085,2.9-17.682,4.381-26.563.712-4.259,1.01-8.429,2.528-12.478,1.39-3.708,3.152-7.341,3.149-11.444A.756.756,0,1,0,2414.89,948.7Z" transform="translate(-1560.565 -634.449)" fill="#be2328"/>
        <path id="Path_331" data-name="Path 331" d="M2444.129,891.471c-4.873,1.491-9.213,2.022-14.233,2.854a109.009,109.009,0,0,1-37.323-.394c-.082-.015-.166-.027-.248-.042-2.115-1.663.1-4.521.1-4.521,2.993.518,4.747,1.224,7.768,1.493a112.958,112.958,0,0,0,29.311-1.213c4.932-.853,9.178-1.4,13.961-2.9A3.613,3.613,0,0,1,2444.129,891.471Z" transform="translate(-1573.037 -600.488)" fill="#4b3333"/>
        <path id="Path_332" data-name="Path 332" d="M2462.017,882.973c-.267-1.479-2.851-1.053-2.633.452.347,2.4.3,4.865.709,7.247.222,1.3,2.476,1.206,2.62-.093A27.069,27.069,0,0,0,2462.017,882.973Zm-33.373,3.777a1.937,1.937,0,0,0-3.87.137c.059,2.7.021,5.428.23,8.123a2,2,0,0,0,3.984-.141c.018-2.7-.212-5.419-.345-8.119Z" transform="translate(-1594.192 -597.516)" fill="#eb4450"/>
        <path id="Path_333" data-name="Path 333" d="M2394.774,735.695a.386.386,0,0,1-.377-.473c.055-.238,5.308-23.848-10.82-28.306a.386.386,0,0,1,.206-.744c16.841,4.655,11.424,28.979,11.367,29.224a.386.386,0,0,1-.375.3Z" transform="translate(-1567.901 -485.987)" fill="#be2328"/>
        <path id="Path_471" data-name="Path 471" d="M278.876,384.965c-2.152-6.53-5.137-12.406-7.386-18.868a144.513,144.513,0,0,1-5.4-20.263c-.44-2.292-2.526-3.455-4.083-2.732-1.757.816-2.428,3.264-2,5.568a144.864,144.864,0,0,0,5.452,20.887c2.406,6.979,5.012,13.946,9.235,19.208,1.82,2.268,5.279-.48,4.185-3.8ZM305.519,220.7c-.574-2.76-2.782-4.233-4.719-3.117a73.532,73.532,0,0,0-18.642,15.554c-11.6,13.341-19.85,31.148-23.808,51.128a132.661,132.661,0,0,0-2.125,34.262c.371,5.581,6.675,5.1,6.39-.526a123.27,123.27,0,0,1,9.209-53.738,90.18,90.18,0,0,1,12.893-21.575,72.757,72.757,0,0,1,16.292-14.7q1.249-.8,2.529-1.528c1.62-.927,2.481-3.366,2-5.671Z" transform="translate(-242.925 -196.971)" fill="#862022"/>
        <path id="Path_472" data-name="Path 472" d="M1161.253,435.73q.144-7.874-.278-15.74c-.442-8.454-.839-17.719-4.19-25.34a20.168,20.168,0,0,0-5.016-7.145c3.224-9.723,5.484-21.37-.706-30.014-5.962-8.326-16.23-9.2-24.5-7.056a37.926,37.926,0,0,0-15.221,8.272c-1.261,1.09-1.211,3.631-.274,4.954,1.117,1.577,2.74,1.4,4.022.338,6.343-5.255,14.529-7.981,22.147-6.749a15.447,15.447,0,0,1,4.617,1.5q.564.274,1.1.6c.09.055.3.2.633.444q.585.431,1.128.915.272.243.535.5c.039.038.205.214.238.244,2.523,2.877,3.414,6.622,3.182,10.805-.3,5.368-2.078,10.59-3.885,15.609a4.247,4.247,0,0,0,1.937,4.958,8.7,8.7,0,0,1,3.173,3.015,9.637,9.637,0,0,1,1.153,2.1,28.323,28.323,0,0,1,1.115,2.93c1.158,3.6,1.765,8.848,2.132,13.246q.758,9.059.7,18.178c-.029,6.295-.784,12.667-.181,18.934.3,3.155,4.113,3.189,4.889.411,1.418-5.083,1.445-10.578,1.543-15.9Z" transform="translate(-210.956 -200.988)" fill="#862022"/>
      </g>
    </g>
  </g>
</svg>
